<?xml version="1.0" encoding="UTF-8"?><svg xmlns="http://www.w3.org/2000/svg" xmlns:xlink="http://www.w3.org/1999/xlink" viewBox="0 0 4059.07 4075.84"><defs><style>.cls-1{fill:gray;}.cls-1,.cls-2,.cls-3,.cls-4,.cls-5,.cls-6,.cls-7,.cls-8,.cls-9,.cls-10,.cls-11,.cls-12,.cls-13,.cls-14{stroke-linecap:round;stroke-linejoin:round;}.cls-1,.cls-3,.cls-4,.cls-5,.cls-6,.cls-7,.cls-9,.cls-10,.cls-11,.cls-13,.cls-14{stroke:#4d4d4d;}.cls-1,.cls-3,.cls-4,.cls-7,.cls-9,.cls-10,.cls-11,.cls-13,.cls-14,.cls-15{stroke-width:.5px;}.cls-2{stroke:#ccc;}.cls-2,.cls-5{stroke-width:2px;}.cls-2,.cls-5,.cls-10,.cls-16,.cls-15{fill:none;}.cls-3,.cls-12{fill:#666;}.cls-4{fill:#ccc;}.cls-17{opacity:.2;}.cls-6,.cls-14{fill:#4d4d4d;}.cls-7{fill:#999;}.cls-8{fill:#fff;}.cls-8,.cls-12{stroke:#666;}.cls-9{fill:#e6e6e6;}.cls-18{clip-path:url(#clippath);}.cls-11{fill:#f2f2f2;}.cls-13{fill:#b3b3b3;}.cls-15{stroke:#000;stroke-miterlimit:10;}</style><clipPath id="clippath"><rect class="cls-16" x="1054.39" y="1179.18" width="1920" height="1920"/></clipPath></defs><g id="_Слой_3" class="cls-17"><g class="cls-18"><g><line class="cls-15" x1="3529.53" y1="560.59" x2="3529.53" y2="3515.25"/><line class="cls-15" x1="3479.53" y1="560.59" x2="3479.53" y2="3515.25"/><line class="cls-15" x1="3429.53" y1="560.59" x2="3429.53" y2="3515.25"/><line class="cls-15" x1="3379.53" y1="560.59" x2="3379.53" y2="3515.25"/><line class="cls-15" x1="3329.53" y1="560.59" x2="3329.53" y2="3515.25"/><line class="cls-15" x1="3279.53" y1="560.59" x2="3279.53" y2="3515.25"/><line class="cls-15" x1="3229.53" y1="560.59" x2="3229.53" y2="3515.25"/><line class="cls-15" x1="3179.53" y1="560.59" x2="3179.53" y2="3515.25"/><line class="cls-15" x1="3129.53" y1="560.59" x2="3129.53" y2="3515.25"/><line class="cls-15" x1="3079.53" y1="560.59" x2="3079.53" y2="3515.25"/><line class="cls-15" x1="3029.53" y1="560.59" x2="3029.53" y2="3515.25"/><line class="cls-15" x1="2979.53" y1="560.59" x2="2979.53" y2="3515.25"/><line class="cls-15" x1="2929.53" y1="560.59" x2="2929.53" y2="3515.25"/><line class="cls-15" x1="2879.53" y1="560.59" x2="2879.53" y2="3515.25"/><line class="cls-15" x1="2829.53" y1="560.59" x2="2829.53" y2="3515.25"/><line class="cls-15" x1="2779.53" y1="560.59" x2="2779.53" y2="3515.25"/><line class="cls-15" x1="2729.53" y1="560.59" x2="2729.53" y2="3515.25"/><line class="cls-15" x1="2679.53" y1="560.59" x2="2679.53" y2="3515.25"/><line class="cls-15" x1="2629.53" y1="560.59" x2="2629.53" y2="3515.25"/><line class="cls-15" x1="2579.53" y1="560.59" x2="2579.53" y2="3515.25"/><line class="cls-15" x1="2529.53" y1="560.59" x2="2529.53" y2="3515.25"/><line class="cls-15" x1="2479.53" y1="560.59" x2="2479.53" y2="3515.25"/><line class="cls-15" x1="2429.53" y1="560.59" x2="2429.53" y2="3515.25"/><line class="cls-15" x1="2379.53" y1="560.59" x2="2379.53" y2="3515.25"/><line class="cls-15" x1="2329.53" y1="560.59" x2="2329.53" y2="3515.25"/><line class="cls-15" x1="2279.53" y1="560.59" x2="2279.53" y2="3515.25"/><line class="cls-15" x1="2229.53" y1="560.59" x2="2229.53" y2="3515.25"/><line class="cls-15" x1="2179.53" y1="560.59" x2="2179.53" y2="3515.25"/><line class="cls-15" x1="2129.53" y1="560.59" x2="2129.53" y2="3515.25"/><line class="cls-15" x1="2079.53" y1="560.59" x2="2079.53" y2="3515.25"/><line class="cls-15" x1="2029.53" y1="560.59" x2="2029.53" y2="3515.25"/><line class="cls-15" x1="1979.53" y1="560.59" x2="1979.53" y2="3515.25"/><line class="cls-15" x1="1929.53" y1="560.59" x2="1929.53" y2="3515.25"/><line class="cls-15" x1="1879.53" y1="560.59" x2="1879.53" y2="3515.25"/><line class="cls-15" x1="1829.53" y1="560.59" x2="1829.53" y2="3515.25"/><line class="cls-15" x1="1779.53" y1="560.59" x2="1779.53" y2="3515.25"/><line class="cls-15" x1="1729.53" y1="560.59" x2="1729.53" y2="3515.25"/><line class="cls-15" x1="1679.53" y1="560.59" x2="1679.53" y2="3515.25"/><line class="cls-15" x1="1629.53" y1="560.59" x2="1629.53" y2="3515.25"/><line class="cls-15" x1="1579.53" y1="560.59" x2="1579.53" y2="3515.25"/><line class="cls-15" x1="1529.53" y1="560.59" x2="1529.53" y2="3515.25"/><line class="cls-15" x1="1479.53" y1="560.59" x2="1479.53" y2="3515.25"/><line class="cls-15" x1="1429.53" y1="560.59" x2="1429.53" y2="3515.25"/><line class="cls-15" x1="1379.53" y1="560.59" x2="1379.53" y2="3515.25"/><line class="cls-15" x1="1329.53" y1="560.59" x2="1329.53" y2="3515.25"/><line class="cls-15" x1="1279.53" y1="560.59" x2="1279.53" y2="3515.25"/><line class="cls-15" x1="1229.53" y1="560.59" x2="1229.53" y2="3515.25"/><line class="cls-15" x1="1179.53" y1="560.59" x2="1179.53" y2="3515.25"/><line class="cls-15" x1="1129.53" y1="560.59" x2="1129.53" y2="3515.25"/><line class="cls-15" x1="1079.53" y1="560.59" x2="1079.53" y2="3515.25"/><line class="cls-15" x1="1029.53" y1="560.59" x2="1029.53" y2="3515.25"/><line class="cls-15" x1="979.53" y1="560.59" x2="979.53" y2="3515.25"/><line class="cls-15" x1="929.53" y1="560.59" x2="929.53" y2="3515.25"/><line class="cls-15" x1="879.53" y1="560.59" x2="879.53" y2="3515.25"/><line class="cls-15" x1="829.53" y1="560.59" x2="829.53" y2="3515.25"/><line class="cls-15" x1="779.53" y1="560.59" x2="779.53" y2="3515.25"/><line class="cls-15" x1="729.53" y1="560.59" x2="729.53" y2="3515.25"/><line class="cls-15" x1="679.53" y1="560.59" x2="679.53" y2="3515.25"/><line class="cls-15" x1="629.53" y1="560.59" x2="629.53" y2="3515.25"/><line class="cls-15" x1="579.53" y1="560.59" x2="579.53" y2="3515.25"/><line class="cls-15" x1="529.53" y1="560.59" x2="529.53" y2="3515.25"/></g><g><line class="cls-15" x1="1500.13" y1=".22" x2="4058.94" y2="1477.55"/><line class="cls-15" x1="1475.13" y1="43.52" x2="4033.94" y2="1520.85"/><line class="cls-15" x1="1450.13" y1="86.82" x2="4008.94" y2="1564.15"/><line class="cls-15" x1="1425.13" y1="130.12" x2="3983.94" y2="1607.45"/><line class="cls-15" x1="1400.13" y1="173.42" x2="3958.94" y2="1650.75"/><line class="cls-15" x1="1375.13" y1="216.72" x2="3933.94" y2="1694.06"/><line class="cls-15" x1="1350.13" y1="260.02" x2="3908.94" y2="1737.36"/><line class="cls-15" x1="1325.13" y1="303.33" x2="3883.94" y2="1780.66"/><line class="cls-15" x1="1300.13" y1="346.63" x2="3858.94" y2="1823.96"/><line class="cls-15" x1="1275.13" y1="389.93" x2="3833.94" y2="1867.26"/><line class="cls-15" x1="1250.13" y1="433.23" x2="3808.94" y2="1910.56"/><line class="cls-15" x1="1225.13" y1="476.53" x2="3783.94" y2="1953.86"/><line class="cls-15" x1="1200.13" y1="519.83" x2="3758.94" y2="1997.17"/><line class="cls-15" x1="1175.13" y1="563.13" x2="3733.94" y2="2040.47"/><line class="cls-15" x1="1150.13" y1="606.43" x2="3708.94" y2="2083.77"/><line class="cls-15" x1="1125.13" y1="649.74" x2="3683.94" y2="2127.07"/><line class="cls-15" x1="1100.13" y1="693.04" x2="3658.94" y2="2170.37"/><line class="cls-15" x1="1075.13" y1="736.34" x2="3633.94" y2="2213.67"/><line class="cls-15" x1="1050.13" y1="779.64" x2="3608.94" y2="2256.97"/><line class="cls-15" x1="1025.13" y1="822.94" x2="3583.94" y2="2300.27"/><line class="cls-15" x1="1000.13" y1="866.24" x2="3558.94" y2="2343.58"/><line class="cls-15" x1="975.13" y1="909.54" x2="3533.94" y2="2386.88"/><line class="cls-15" x1="950.13" y1="952.84" x2="3508.94" y2="2430.18"/><line class="cls-15" x1="925.13" y1="996.15" x2="3483.94" y2="2473.48"/><line class="cls-15" x1="900.13" y1="1039.45" x2="3458.94" y2="2516.78"/><line class="cls-15" x1="875.13" y1="1082.75" x2="3433.94" y2="2560.08"/><line class="cls-15" x1="850.13" y1="1126.05" x2="3408.94" y2="2603.38"/><line class="cls-15" x1="825.13" y1="1169.35" x2="3383.94" y2="2646.68"/><line class="cls-15" x1="800.13" y1="1212.65" x2="3358.94" y2="2689.99"/><line class="cls-15" x1="775.13" y1="1255.95" x2="3333.94" y2="2733.29"/><line class="cls-15" x1="750.13" y1="1299.25" x2="3308.94" y2="2776.59"/><line class="cls-15" x1="725.13" y1="1342.56" x2="3283.94" y2="2819.89"/><line class="cls-15" x1="700.13" y1="1385.86" x2="3258.94" y2="2863.19"/><line class="cls-15" x1="675.13" y1="1429.16" x2="3233.94" y2="2906.49"/><line class="cls-15" x1="650.13" y1="1472.46" x2="3208.94" y2="2949.79"/><line class="cls-15" x1="625.13" y1="1515.76" x2="3183.94" y2="2993.09"/><line class="cls-15" x1="600.13" y1="1559.06" x2="3158.94" y2="3036.4"/><line class="cls-15" x1="575.13" y1="1602.36" x2="3133.94" y2="3079.7"/><line class="cls-15" x1="550.13" y1="1645.66" x2="3108.94" y2="3123"/><line class="cls-15" x1="525.13" y1="1688.97" x2="3083.94" y2="3166.3"/><line class="cls-15" x1="500.13" y1="1732.27" x2="3058.94" y2="3209.6"/><line class="cls-15" x1="475.13" y1="1775.57" x2="3033.94" y2="3252.9"/><line class="cls-15" x1="450.13" y1="1818.87" x2="3008.94" y2="3296.2"/><line class="cls-15" x1="425.13" y1="1862.17" x2="2983.94" y2="3339.5"/><line class="cls-15" x1="400.13" y1="1905.47" x2="2958.94" y2="3382.81"/><line class="cls-15" x1="375.13" y1="1948.77" x2="2933.94" y2="3426.11"/><line class="cls-15" x1="350.13" y1="1992.07" x2="2908.94" y2="3469.41"/><line class="cls-15" x1="325.13" y1="2035.38" x2="2883.94" y2="3512.71"/><line class="cls-15" x1="300.13" y1="2078.68" x2="2858.94" y2="3556.01"/><line class="cls-15" x1="275.13" y1="2121.98" x2="2833.94" y2="3599.31"/><line class="cls-15" x1="250.13" y1="2165.28" x2="2808.94" y2="3642.61"/><line class="cls-15" x1="225.13" y1="2208.58" x2="2783.94" y2="3685.91"/><line class="cls-15" x1="200.13" y1="2251.88" x2="2758.94" y2="3729.22"/><line class="cls-15" x1="175.13" y1="2295.18" x2="2733.94" y2="3772.52"/><line class="cls-15" x1="150.13" y1="2338.49" x2="2708.94" y2="3815.82"/><line class="cls-15" x1="125.13" y1="2381.79" x2="2683.94" y2="3859.12"/><line class="cls-15" x1="100.13" y1="2425.09" x2="2658.94" y2="3902.42"/><line class="cls-15" x1="75.13" y1="2468.39" x2="2633.94" y2="3945.72"/><line class="cls-15" x1="50.13" y1="2511.69" x2="2608.94" y2="3989.02"/><line class="cls-15" x1="25.13" y1="2554.99" x2="2583.94" y2="4032.32"/><line class="cls-15" x1=".13" y1="2598.29" x2="2558.94" y2="4075.63"/></g><g><line class="cls-15" x1="4058.94" y1="2598.29" x2="1500.13" y2="4075.63"/><line class="cls-15" x1="4033.94" y1="2554.99" x2="1475.13" y2="4032.32"/><line class="cls-15" x1="4008.94" y1="2511.69" x2="1450.13" y2="3989.02"/><line class="cls-15" x1="3983.94" y1="2468.39" x2="1425.13" y2="3945.72"/><line class="cls-15" x1="3958.94" y1="2425.09" x2="1400.13" y2="3902.42"/><line class="cls-15" x1="3933.94" y1="2381.79" x2="1375.13" y2="3859.12"/><line class="cls-15" x1="3908.94" y1="2338.49" x2="1350.13" y2="3815.82"/><line class="cls-15" x1="3883.94" y1="2295.18" x2="1325.13" y2="3772.52"/><line class="cls-15" x1="3858.94" y1="2251.88" x2="1300.13" y2="3729.22"/><line class="cls-15" x1="3833.94" y1="2208.58" x2="1275.13" y2="3685.91"/><line class="cls-15" x1="3808.94" y1="2165.28" x2="1250.13" y2="3642.61"/><line class="cls-15" x1="3783.94" y1="2121.98" x2="1225.13" y2="3599.31"/><line class="cls-15" x1="3758.94" y1="2078.68" x2="1200.13" y2="3556.01"/><line class="cls-15" x1="3733.94" y1="2035.38" x2="1175.13" y2="3512.71"/><line class="cls-15" x1="3708.94" y1="1992.07" x2="1150.13" y2="3469.41"/><line class="cls-15" x1="3683.94" y1="1948.77" x2="1125.13" y2="3426.11"/><line class="cls-15" x1="3658.94" y1="1905.47" x2="1100.13" y2="3382.81"/><line class="cls-15" x1="3633.94" y1="1862.17" x2="1075.13" y2="3339.5"/><line class="cls-15" x1="3608.94" y1="1818.87" x2="1050.13" y2="3296.2"/><line class="cls-15" x1="3583.94" y1="1775.57" x2="1025.13" y2="3252.9"/><line class="cls-15" x1="3558.94" y1="1732.27" x2="1000.13" y2="3209.6"/><line class="cls-15" x1="3533.94" y1="1688.97" x2="975.13" y2="3166.3"/><line class="cls-15" x1="3508.94" y1="1645.66" x2="950.13" y2="3123"/><line class="cls-15" x1="3483.94" y1="1602.36" x2="925.13" y2="3079.7"/><line class="cls-15" x1="3458.94" y1="1559.06" x2="900.13" y2="3036.4"/><line class="cls-15" x1="3433.94" y1="1515.76" x2="875.13" y2="2993.09"/><line class="cls-15" x1="3408.94" y1="1472.46" x2="850.13" y2="2949.79"/><line class="cls-15" x1="3383.94" y1="1429.16" x2="825.13" y2="2906.49"/><line class="cls-15" x1="3358.94" y1="1385.86" x2="800.13" y2="2863.19"/><line class="cls-15" x1="3333.94" y1="1342.56" x2="775.13" y2="2819.89"/><line class="cls-15" x1="3308.94" y1="1299.25" x2="750.13" y2="2776.59"/><line class="cls-15" x1="3283.94" y1="1255.95" x2="725.13" y2="2733.29"/><line class="cls-15" x1="3258.94" y1="1212.65" x2="700.13" y2="2689.99"/><line class="cls-15" x1="3233.94" y1="1169.35" x2="675.13" y2="2646.68"/><line class="cls-15" x1="3208.94" y1="1126.05" x2="650.13" y2="2603.38"/><line class="cls-15" x1="3183.94" y1="1082.75" x2="625.13" y2="2560.08"/><line class="cls-15" x1="3158.94" y1="1039.45" x2="600.13" y2="2516.78"/><line class="cls-15" x1="3133.94" y1="996.15" x2="575.13" y2="2473.48"/><line class="cls-15" x1="3108.94" y1="952.84" x2="550.13" y2="2430.18"/><line class="cls-15" x1="3083.94" y1="909.54" x2="525.13" y2="2386.88"/><line class="cls-15" x1="3058.94" y1="866.24" x2="500.13" y2="2343.58"/><line class="cls-15" x1="3033.94" y1="822.94" x2="475.13" y2="2300.27"/><line class="cls-15" x1="3008.94" y1="779.64" x2="450.13" y2="2256.97"/><line class="cls-15" x1="2983.94" y1="736.34" x2="425.13" y2="2213.67"/><line class="cls-15" x1="2958.94" y1="693.04" x2="400.13" y2="2170.37"/><line class="cls-15" x1="2933.94" y1="649.74" x2="375.13" y2="2127.07"/><line class="cls-15" x1="2908.94" y1="606.43" x2="350.13" y2="2083.77"/><line class="cls-15" x1="2883.94" y1="563.13" x2="325.13" y2="2040.47"/><line class="cls-15" x1="2858.94" y1="519.83" x2="300.13" y2="1997.17"/><line class="cls-15" x1="2833.94" y1="476.53" x2="275.13" y2="1953.86"/><line class="cls-15" x1="2808.94" y1="433.23" x2="250.13" y2="1910.56"/><line class="cls-15" x1="2783.94" y1="389.93" x2="225.13" y2="1867.26"/><line class="cls-15" x1="2758.94" y1="346.63" x2="200.13" y2="1823.96"/><line class="cls-15" x1="2733.94" y1="303.33" x2="175.13" y2="1780.66"/><line class="cls-15" x1="2708.94" y1="260.02" x2="150.13" y2="1737.36"/><line class="cls-15" x1="2683.94" y1="216.72" x2="125.13" y2="1694.06"/><line class="cls-15" x1="2658.94" y1="173.42" x2="100.13" y2="1650.75"/><line class="cls-15" x1="2633.94" y1="130.12" x2="75.13" y2="1607.45"/><line class="cls-15" x1="2608.94" y1="86.82" x2="50.13" y2="1564.15"/><line class="cls-15" x1="2583.94" y1="43.52" x2="25.13" y2="1520.85"/><line class="cls-15" x1="2558.94" y1=".22" x2=".13" y2="1477.55"/></g></g></g><g id="_ФАБРИКА"><g id="_пол_стенки"><polygon class="cls-12" points="2679.5 1720.4 2679.53 1708.77 2414.39 1861.85 2414.39 1873.46 2679.5 1720.4"/><polygon class="cls-6" points="2079.5 1668.37 2414.39 1861.85 2414.39 1873.46 2079.53 1679.94 2079.5 1668.37"/><polygon class="cls-8" points="2679.53 1708.77 2344.5 1515.38 2079.5 1668.37 2414.39 1861.85 2679.53 1708.77"/><polygon class="cls-9" points="2079.5 1668.37 2079.5 1604.93 2344.5 1451.93 2344.5 1515.38 2079.5 1668.37"/><polygon class="cls-10" points="2469.74 1830.15 2469.5 1766.52 2679.53 1645.26 2679.53 1708.77 2469.74 1830.15"/><polygon class="cls-10" points="2119.5 1581.77 2114.5 1584.72 2114.5 1648.17 2119.52 1645.26 2119.5 1581.77"/><polygon class="cls-10" points="2264.5 1498.06 2264.5 1561.56 2269.5 1558.68 2269.5 1495.17 2264.5 1498.06"/><polygon class="cls-10" points="2534.5 1729 2534.5 1792.68 2539.65 1789.7 2539.65 1726.19 2534.5 1729"/><polygon class="cls-10" points="2614.46 1682.78 2609.5 1685.7 2609.29 1749.26 2614.5 1746.32 2614.46 1682.78"/></g><g id="_задняя_нависающая_часть"><polygon class="cls-4" points="2359.5 1356.61 2359.5 1512.49 2344.5 1503.83 2344.5 1347.95 2359.5 1356.61"/><polygon class="cls-1" points="2339.34 1500.85 2344.5 1503.83 2344.5 1347.95 2634.5 1515.44 2634.47 1694.37 2639.48 1697.25 2639.48 1512.48 2339.56 1339.31 2339.34 1500.85"/><polygon class="cls-4" points="2354.5 1330.68 2339.56 1339.31 2639.48 1512.48 2654.5 1503.83 2354.5 1330.68"/><polygon class="cls-11" points="2639.48 1697.25 2654.45 1688.61 2654.5 1503.83 2639.48 1512.48 2639.48 1697.25"/></g><g id="_1_аппарат"><g id="_дно"><polygon class="cls-13" points="2399.56 1535.61 2309.5 1483.62 2244.5 1521.15 2334.5 1573.17 2399.56 1535.61"/><polygon class="cls-1" points="2314.5 1590.43 2334.5 1601.98 2334.5 1573.17 2314.5 1561.61 2314.5 1590.43"/><polygon class="cls-7" points="2399.56 1535.61 2334.5 1573.17 2334.5 1601.98 2399.56 1564.48 2399.56 1535.61"/><polygon class="cls-14" points="2244.5 1521.15 2244.5 1526.92 2254.5 1532.7 2259.56 1529.84 2244.5 1521.15"/></g><g id="_дорожка"><polygon class="cls-11" points="2089.5 1627.96 2089.5 1633.73 2264.5 1532.7 2264.5 1526.92 2089.5 1627.96"/><polygon class="cls-13" points="2089.5 1633.73 2264.5 1532.7 2309.5 1558.68 2134.5 1659.71 2089.5 1633.73"/><path class="cls-13" d="M2088.32,1638.82l46.19,26.67v-5.77l-45-25.98-1.19,.68c-1.7,.98-1.7,3.43,0,4.4Z"/><path class="cls-11" d="M2089.5,1633.73c.65-2.61,2.15-3.84,5-2.89l45,25.98-5,2.89-45-25.98Z"/><path class="cls-11" d="M2099.5,1627.96c.65-2.61,2.15-3.84,5-2.89l45,25.98-5,2.89-45-25.98Z"/><path class="cls-11" d="M2109.48,1622.24c.65-2.61,2.15-3.84,5-2.89l45,25.98-5,2.89-45-25.98Z"/><path class="cls-11" d="M2119.5,1616.41c.65-2.61,2.15-3.84,5-2.89l45,25.98-5,2.89-45-25.98Z"/><path class="cls-11" d="M2129.5,1610.64c.65-2.61,2.15-3.84,5-2.89l45,25.98-5,2.89-45-25.98Z"/><path class="cls-11" d="M2139.5,1604.87c.65-2.61,2.15-3.84,5-2.89l45,25.98-5,2.89-45-25.98Z"/><path class="cls-11" d="M2149.5,1599.09c.65-2.61,2.15-3.84,5-2.89l45,25.98-5,2.89-45-25.98Z"/><path class="cls-11" d="M2159.55,1593.21c.65-2.61,2.15-3.84,5-2.89l45,25.98-5,2.89-45-25.98Z"/><path class="cls-11" d="M2169.55,1587.43c.65-2.61,2.15-3.84,5-2.89l45,25.98-5,2.89-45-25.98Z"/><path class="cls-11" d="M2179.53,1581.72c.65-2.61,2.15-3.84,5-2.89l45,25.98-5,2.89-45-25.98Z"/><path class="cls-11" d="M2189.55,1575.89c.65-2.61,2.15-3.84,5-2.89l45,25.98-5,2.89-45-25.98Z"/><path class="cls-11" d="M2199.55,1570.11c.65-2.61,2.15-3.84,5-2.89l45,25.98-5,2.89-45-25.98Z"/><path class="cls-11" d="M2209.55,1564.34c.65-2.61,2.15-3.84,5-2.89l45,25.98-5,2.89-45-25.98Z"/><path class="cls-11" d="M2219.55,1558.57c.65-2.61,2.15-3.84,5-2.89l45,25.98-5,2.89-45-25.98Z"/><path class="cls-11" d="M2229.5,1552.9c.65-2.61,2.15-3.84,5-2.89l45,25.98-5,2.89-45-25.98Z"/><path class="cls-11" d="M2239.5,1547.13c.65-2.61,2.15-3.84,5-2.89l45,25.98-5,2.89-45-25.98Z"/><path class="cls-11" d="M2249.5,1541.36c.65-2.61,2.15-3.84,5-2.89l45,25.98-5,2.89-45-25.98Z"/><path class="cls-11" d="M2259.5,1535.58c.65-2.61,2.15-3.84,5-2.89l45,25.98-5,2.89-45-25.98Z"/></g><g id="_верх"><polygon class="cls-3" points="2179.66 1512.58 2179.53 1576.03 2199.5 1564.45 2199.5 1524.04 2179.66 1512.58"/><polygon class="cls-14" points="2199.5 1524.04 2199.5 1564.45 2259.5 1599.09 2259.56 1558.71 2199.5 1524.04"/><g><g><path class="cls-9" d="M2201.01,1542.85l6.75,3.76c1.41,.81-3.93,.52-3.98,7.78v3.15c0,3.02-3.27,4.91-5.88,3.4l-1.81-1.04c-1.43-.82-2.31-2.35-2.31-4v-4.99c0-8.21,5.02-9.33,7.23-8.05Z"/><path class="cls-9" d="M2213.26,1550.09l6.75,3.76c1.41,.81-3.93,.52-3.98,7.78v3.15c0,3.02-3.27,4.91-5.88,3.4l-1.81-1.04c-1.43-.82-2.31-2.35-2.31-4v-4.99c0-8.21,5.02-9.33,7.23-8.05Z"/><path class="cls-9" d="M2226.21,1557.3l6.75,3.76c1.41,.81-3.93,.52-3.98,7.78v3.15c0,3.02-3.27,4.91-5.88,3.4l-1.81-1.04c-1.43-.82-2.31-2.35-2.31-4v-4.99c0-8.21,5.02-9.33,7.23-8.05Z"/><path class="cls-9" d="M2252.1,1572.08l6.75,3.76c1.41,.81-3.93,.52-3.98,7.78v3.15c0,3.02-3.27,4.91-5.88,3.4l-1.81-1.04c-1.43-.82-2.31-2.35-2.31-4v-4.99c0-8.21,5.02-9.33,7.23-8.05Z"/><path class="cls-9" d="M2239.4,1565.02l6.75,3.76c1.41,.81-3.93,.52-3.98,7.78v3.15c0,3.02-3.27,4.91-5.88,3.4l-1.81-1.04c-1.43-.82-2.31-2.35-2.31-4v-4.99c0-8.21,5.02-9.33,7.23-8.05Z"/><path class="cls-9" d="M2265.2,1579.63l6.75,3.76c1.41,.81-3.93,.52-3.98,7.78v3.15c0,3.02-3.27,4.91-5.88,3.4l-1.81-1.04c-1.43-.82-2.31-2.35-2.31-4v-4.99c0-8.21,5.02-9.33,7.23-8.05Z"/></g><g><path class="cls-9" d="M2197.77,1524.6l6.75,3.76c1.41,.81-3.93,.52-3.98,7.78v3.15c0,3.02-3.27,4.91-5.88,3.4l-1.81-1.04c-1.43-.82-2.31-2.35-2.31-4v-4.99c0-8.21,5.02-9.33,7.23-8.05Z"/><path class="cls-9" d="M2210.02,1531.84l6.75,3.76c1.41,.81-3.93,.52-3.98,7.78v3.15c0,3.02-3.27,4.91-5.88,3.4l-1.81-1.04c-1.43-.82-2.31-2.35-2.31-4v-4.99c0-8.21,5.02-9.33,7.23-8.05Z"/><path class="cls-9" d="M2222.98,1539.05l6.75,3.76c1.41,.81-3.93,.52-3.98,7.78v3.15c0,3.02-3.27,4.91-5.88,3.4l-1.81-1.04c-1.43-.82-2.31-2.35-2.31-4v-4.99c0-8.21,5.02-9.33,7.23-8.05Z"/><path class="cls-9" d="M2247.76,1553.83l6.75,3.76c1.41,.81-3.93,.52-3.98,7.78v3.15c0,3.02-3.27,4.91-5.88,3.4l-1.81-1.04c-1.43-.82-2.31-2.35-2.31-4v-4.99c0-8.21,5.02-9.33,7.23-8.05Z"/><path class="cls-9" d="M2235.57,1546.27l6.75,3.76c1.41,.81-3.93,.52-3.98,7.78v3.15c0,3.02-3.27,4.91-5.88,3.4l-1.81-1.04c-1.43-.82-2.31-2.35-2.31-4v-4.99c0-8.21,5.02-9.33,7.23-8.05Z"/><path class="cls-9" d="M2260.63,1560.87l6.75,3.76c1.41,.81-3.93,.52-3.98,7.78v3.15c0,3.02-3.27,4.91-5.88,3.4l-1.81-1.04c-1.43-.82-2.31-2.35-2.31-4v-4.99c0-8.21,5.02-9.33,7.23-8.05Z"/></g></g><polygon class="cls-4" points="2199.34 1500.85 2179.66 1512.58 2259.56 1558.71 2279.56 1547.16 2199.34 1500.85"/><polygon class="cls-11" points="2259.56 1558.71 2259.5 1616.47 2279.56 1604.84 2279.56 1547.16 2259.56 1558.71"/></g><g><polygon class="cls-1" points="2089.62 1668.29 2134.47 1694.37 2134.5 1665.48 2089.49 1639.51 2089.62 1668.29"/><polygon class="cls-11" points="2134.47 1659.9 2134.5 1671.27 2264.47 1596.2 2264.47 1584.85 2134.47 1659.9"/><polygon class="cls-7" points="2134.5 1671.27 2134.47 1694.37 2264.47 1619.32 2264.47 1596.2 2134.5 1671.27"/><polygon class="cls-7" points="2299.5 1599.09 2314.5 1590.43 2314.5 1567.34 2299.5 1576 2299.5 1599.09"/><polygon class="cls-11" points="2314.5 1567.34 2314.51 1555.8 2279.56 1576.03 2279.56 1587.52 2314.5 1567.34"/></g><g id="_подъемный_механизм_слева"><g><polygon class="cls-1" points="2324.5 1365.27 2334.5 1371.04 2334.5 1498.06 2324.5 1492.28 2324.5 1365.27"/><polygon class="cls-4" points="2329.53 1362.4 2324.5 1365.27 2334.5 1371.04 2339.56 1368.12 2329.53 1362.4"/><polygon class="cls-11" points="2334.5 1498.06 2339.34 1500.85 2339.56 1368.12 2334.5 1371.04 2334.5 1498.06"/><polygon class="cls-3" points="2339.34 1408.47 2344.55 1411.45 2344.5 1503.83 2349.5 1506.72 2349.5 1391.31 2339.56 1385.5 2339.34 1408.47"/><polygon class="cls-11" points="2349.5 1391.31 2349.5 1506.72 2354.5 1509.6 2354.5 1411.45 2359.5 1408.57 2359.5 1385.53 2349.5 1391.31"/></g><g><path class="cls-11" d="M2312.45,1479.42c-6.81-3.93-17.93,2.57-24.84,14.53-6.9,11.96-6.98,24.84-.16,28.77l54.4,31.17,24.95-43.33-.94-.54-53.41-30.6Z"/><ellipse class="cls-11" cx="2353.36" cy="1531.67" rx="25" ry="14.25" transform="translate(-149.79 2803.9) rotate(-60)"/><ellipse class="cls-3" cx="2353.36" cy="1531.67" rx="20" ry="11.4" transform="translate(-149.79 2803.9) rotate(-60)"/><path class="cls-7" d="M2349.76,1518.13c-2.29,2.06-4.46,4.71-6.27,7.84-5.52,9.57-5.58,19.87-.13,23.02,5.45,3.15,14.35-2.06,19.87-11.62,1.81-3.14,3.03-6.36,3.66-9.38l-17.13-9.86Z"/><path class="cls-13" d="M2339.82,1535.4c-1.28,6.16-.11,11.48,3.54,13.59,3.65,2.11,8.85,.46,13.54-3.73l-17.08-9.86Z"/><g><path class="cls-4" d="M2341.02,1524.55c1.76-3.04,3.79-5.73,5.95-7.98l-53.37-30.64c-2.18,2.26-4.22,4.96-5.99,8.03-6.9,11.96-6.98,24.84-.16,28.77l53.41,30.6c-6.81-3.93-6.74-16.82,.16-28.77Z"/><path class="cls-4" d="M2340.86,1553.32l.99,.57,.04-.08c-.35-.14-.7-.3-1.03-.49Z"/></g><path class="cls-1" d="M2337.05,1533.8l-53.41-30.6c-2.51,8.74-1.25,16.6,3.81,19.52l53.41,30.6c-5.06-2.92-6.31-10.77-3.8-19.52Z"/></g><g><polygon class="cls-11" points="2324.5 1405.74 2324.5 1492.28 2334.5 1486.51 2334.5 1399.97 2324.5 1405.74"/><polygon class="cls-1" points="2324.5 1492.28 2324.5 1405.74 2314.5 1399.91 2314.5 1486.51 2324.5 1492.28"/><polygon class="cls-3" points="2324.5 1446.09 2304.61 1434.61 2304.61 1423.06 2324.5 1434.55 2324.5 1446.09"/><polygon class="cls-13" points="2339.56 1437.4 2324.5 1446.09 2324.5 1434.55 2339.56 1425.86 2339.56 1437.4"/><polygon class="cls-13" points="2324.5 1405.74 2324.5 1411.45 2359.52 1391.26 2359.5 1385.53 2324.5 1405.74"/><polygon class="cls-3" points="2324.5 1411.45 2314.4 1405.74 2314.5 1399.91 2324.5 1405.74 2324.5 1411.45"/><polygon class="cls-4" points="2314.5 1399.91 2319.5 1397.05 2324.63 1399.91 2344.4 1388.37 2339.56 1385.5 2339.56 1373.96 2359.5 1385.53 2324.5 1405.74 2314.5 1399.91"/><polygon class="cls-4" points="2304.61 1423.06 2309.5 1420.11 2314.4 1417.17 2314.4 1422.94 2324.5 1428.77 2334.5 1422.94 2339.56 1425.86 2324.5 1434.55 2304.61 1423.06"/></g></g></g><g id="_ящик"><polygon class="cls-11" points="2259.53 1581.82 2274.5 1590.43 2299.5 1576 2284.5 1567.34 2259.53 1581.82"/><polygon class="cls-11" points="2274.5 1636.62 2299.5 1622.19 2299.5 1576 2274.5 1590.43 2274.5 1636.62"/><polygon class="cls-1" points="2259.53 1628.06 2259.53 1581.82 2274.5 1590.43 2274.5 1636.62 2259.53 1628.06"/><polygon class="cls-4" points="2279.5 1593.32 2279.5 1599.09 2284.5 1596.21 2284.5 1590.43 2279.5 1593.32"/><polygon class="cls-13" points="2289.5 1587.55 2289.5 1599.15 2297.87 1594.26 2297.87 1582.72 2289.5 1587.55"/><polygon class="cls-10" points="2275.93 1606.99 2275.93 1603.21 2284.5 1598.15 2284.5 1602.04 2275.93 1606.99"/><polygon class="cls-14" points="2279.5 1616.41 2279.53 1610.62 2289.5 1604.87 2289.5 1610.66 2279.5 1616.41"/><polygon class="cls-4" points="2262.41 1595.02 2262.41 1600.77 2272.28 1606.47 2272.28 1600.7 2262.41 1595.02"/></g><g id="_3_аппарат"><g id="_дно_конструкции"><polygon class="cls-11" points="2469.59 1789.67 2634.47 1694.37 2634.47 1671.24 2469.5 1766.52 2469.59 1789.67"/><polygon class="cls-11" points="2464.5 1763.64 2469.5 1766.52 2614.47 1682.87 2609.47 1679.87 2464.5 1763.64"/><polygon class="cls-11" points="2379.53 1714.55 2534.52 1625.06 2529.5 1622.17 2374.5 1711.68 2379.53 1714.55"/><polygon class="cls-1" points="2469.59 1789.67 2374.5 1734.77 2374.5 1711.68 2379.53 1714.55 2379.36 1726.19 2464.5 1775.18 2464.5 1763.64 2469.5 1766.52 2469.59 1789.67"/><polygon class="cls-4" points="2384.51 1723.23 2379.36 1726.19 2464.5 1775.18 2464.5 1769.41 2384.51 1723.23"/><polygon class="cls-3" points="2379.53 1714.55 2379.36 1726.19 2534.52 1636.61 2534.52 1625.06 2379.53 1714.55"/><polygon class="cls-14" points="2544.38 1642.47 2549.39 1639.46 2549.36 1633.73 2589.44 1656.92 2604.19 1648.17 2604.56 1677.09 2544.38 1642.47"/><polygon class="cls-9" points="2604.56 1647.95 2599.65 1650.87 2604.56 1653.91 2604.56 1647.95"/></g><g id="_ребристая_лента"><polygon class="cls-14" points="2384.5 1711.68 2384.51 1723.23 2464.5 1769.41 2464.5 1763.64 2469.59 1760.7 2384.5 1711.68"/><polygon class="cls-9" points="2389.5 1708.79 2384.5 1711.68 2469.59 1760.7 2474.51 1757.86 2389.5 1708.79"/><polygon class="cls-14" points="2399.5 1703.02 2399.47 1714.55 2474.51 1757.86 2484.5 1752.09 2399.5 1703.02"/><polygon class="cls-9" points="2404.5 1700.13 2489.41 1749.15 2484.5 1752.09 2399.5 1703.02 2404.5 1700.13"/><polygon class="cls-14" points="2414.53 1694.37 2414.5 1705.9 2489.54 1749.22 2499.53 1743.44 2414.53 1694.37"/><polygon class="cls-9" points="2419.53 1691.49 2504.44 1740.51 2499.53 1743.44 2414.53 1694.37 2419.53 1691.49"/><polygon class="cls-14" points="2429.55 1685.73 2429.52 1697.25 2504.56 1740.57 2514.56 1734.8 2429.55 1685.73"/><polygon class="cls-9" points="2434.56 1682.84 2519.46 1731.86 2514.56 1734.8 2429.55 1685.73 2434.56 1682.84"/><polygon class="cls-14" points="2444.49 1677.02 2444.46 1688.55 2519.49 1731.87 2529.49 1726.1 2444.49 1677.02"/><polygon class="cls-9" points="2449.49 1674.14 2534.39 1723.16 2529.49 1726.1 2444.49 1677.02 2449.49 1674.14"/><polygon class="cls-14" points="2459.52 1668.38 2459.49 1679.91 2534.52 1723.23 2544.52 1717.45 2459.52 1668.38"/><polygon class="cls-9" points="2464.52 1665.5 2549.42 1714.52 2544.52 1717.45 2459.52 1668.38 2464.52 1665.5"/><polygon class="cls-14" points="2474.5 1659.71 2474.47 1671.24 2549.51 1714.56 2559.5 1708.78 2474.5 1659.71"/><polygon class="cls-9" points="2479.5 1656.83 2564.41 1705.85 2559.5 1708.78 2474.5 1659.71 2479.5 1656.83"/><polygon class="cls-14" points="2489.44 1651.13 2489.41 1662.66 2564.44 1705.97 2574.44 1700.2 2489.44 1651.13"/><polygon class="cls-9" points="2494.44 1648.24 2579.34 1697.26 2574.44 1700.2 2489.44 1651.13 2494.44 1648.24"/><polygon class="cls-14" points="2504.44 1642.47 2504.41 1654 2579.44 1697.31 2589.44 1691.54 2504.44 1642.47"/><polygon class="cls-9" points="2509.44 1639.58 2594.34 1688.6 2589.44 1691.54 2504.44 1642.47 2509.44 1639.58"/><polygon class="cls-14" points="2519.56 1633.73 2519.53 1645.26 2594.57 1688.58 2604.56 1682.8 2519.56 1633.73"/><polygon class="cls-9" points="2524.56 1630.85 2609.47 1679.87 2604.56 1682.8 2519.56 1633.73 2524.56 1630.85"/></g><g><path class="cls-11" d="M2578.94,1611.19c6.81-3.93,17.93,2.57,24.84,14.53,6.9,11.96,6.98,24.84,.16,28.77l-152.72,88.17-24.95-43.33,.94-.54,151.73-87.6Z"/><ellipse class="cls-11" cx="2439.71" cy="1720.44" rx="14.25" ry="25" transform="translate(-533.36 1450.35) rotate(-30)"/><ellipse class="cls-3" cx="2439.71" cy="1720.44" rx="11.4" ry="20" transform="translate(-533.36 1450.35) rotate(-30)"/><path class="cls-7" d="M2443.31,1706.9c2.29,2.06,4.46,4.71,6.27,7.84,5.52,9.57,5.58,19.87,.13,23.02-5.45,3.15-14.35-2.06-19.87-11.62-1.81-3.14-3.03-6.36-3.66-9.38l17.13-9.86Z"/><path class="cls-13" d="M2453.25,1724.17c1.28,6.16,.11,11.48-3.54,13.59-3.65,2.11-8.85,.46-13.54-3.73l17.08-9.86Z"/><g><path class="cls-4" d="M2452.05,1713.31c-1.76-3.04-3.79-5.73-5.95-7.98l151.69-87.64c2.18,2.26,4.22,4.96,5.99,8.03,6.9,11.96,6.98,24.84,.16,28.77l-151.73,87.6c6.81-3.93,6.74-16.82-.16-28.77Z"/><path class="cls-4" d="M2452.21,1742.09l-.99,.57-.04-.08c.35-.14,.7-.3,1.03-.49Z"/></g><path class="cls-1" d="M2456.02,1722.57l151.73-87.6c2.51,8.74,1.25,16.6-3.81,19.52l-151.73,87.6c5.06-2.92,6.31-10.77,3.8-19.52Z"/></g><g id="_основа_аппарата"><polygon class="cls-4" points="2474.5 1648.24 2514.56 1625.04 2519.45 1627.93 2479.36 1651.13 2474.5 1648.24"/><polygon class="cls-1" points="2474.47 1653.92 2474.5 1648.24 2479.36 1651.13 2474.47 1653.92"/><polygon class="cls-1" points="2489.41 1639.45 2489.56 1599.12 2589.44 1656.92 2589.44 1645.24 2484.5 1584.66 2484.5 1642.47 2489.41 1639.45"/><polygon class="cls-4" points="2614.5 1630.85 2589.44 1645.24 2484.5 1584.66 2509.5 1570.23 2614.5 1630.85"/><polygon class="cls-1" points="2494.5 1573.11 2494.48 1578.74 2599.5 1639.46 2599.5 1633.73 2494.5 1573.11"/><polygon class="cls-4" points="2499.5 1570.23 2494.5 1573.11 2599.5 1633.73 2604.5 1630.85 2499.5 1570.23"/><polygon class="cls-11" points="2599.5 1639.46 2604.56 1636.56 2604.5 1630.85 2599.5 1633.73 2599.5 1639.46"/><polygon class="cls-11" points="2589.44 1656.92 2589.44 1645.24 2614.5 1630.85 2614.33 1642.15 2589.44 1656.92"/><polygon class="cls-14" points="2489.41 1639.45 2509.5 1627.97 2509.5 1610.67 2489.56 1599.12 2489.41 1639.45"/></g><g id="_аппарат"><polygon class="cls-4" points="2554.39 1584.72 2534.39 1596.27 2544.38 1602.05 2564.41 1590.38 2554.39 1584.72"/><polygon class="cls-1" points="2534.39 1596.27 2534.52 1636.61 2544.38 1642.47 2544.38 1602.05 2534.39 1596.27"/><polygon class="cls-11" points="2539.5 1633.73 2539.5 1599.09 2534.5 1601.98 2534.5 1636.62 2539.5 1633.73"/><polygon class="cls-1" points="2529.5 1633.79 2534.5 1636.62 2534.5 1601.98 2529.5 1599.09 2529.5 1633.79"/><polygon class="cls-4" points="2539.5 1599.09 2534.5 1596.21 2529.5 1599.09 2534.5 1601.98 2539.5 1599.09"/><polygon class="cls-4" points="2532.4 1635.43 2532.4 1646.95 2534.5 1648.17 2536.31 1647.13 2536.31 1635.58 2534.5 1636.62 2532.4 1635.43"/><path class="cls-2" d="M2532.4,1599.09s2.19-20.16,9.67-27.39c7.49-7.23,17.43-8.21,22.43-6.22s13.68,7.34,11.84,18.11-13.27,20.18-13.27,20.18"/><path class="cls-5" d="M2532.4,1599.09s-1.33-20.83,1.95-28.27c3.29-7.44,10.1-15.06,20.15-15.03s17.58,12.94,17.5,21.65c-.08,8.71-6.11,17.45-8.64,20.41"/><path class="cls-5" d="M2534.5,1599.09s1.74-15.44,10-20.21c8.26-4.77,15.19-3.19,17.5-1.44,6.49,4.91,4.7,11.99,1.51,15.94"/><polygon class="cls-11" points="2544.38 1602.05 2544.38 1642.47 2549.39 1639.46 2549.39 1616.35 2564.41 1607.81 2564.41 1590.38 2544.38 1602.05"/></g><g id="_инструменты"><g><polygon class="cls-11" points="2604.55 1636.65 2604.55 1717.48 2629.62 1703.08 2629.62 1622.25 2604.55 1636.65"/><polygon class="cls-1" points="2604.55 1705.93 2589.55 1697.34 2589.55 1708.82 2604.55 1717.48 2604.55 1705.93"/><polygon class="cls-4" points="2604.45 1688.72 2589.55 1697.34 2604.55 1705.93 2604.45 1688.72"/></g><g><polygon class="cls-7" points="2609.47 1651.12 2609.47 1674.22 2629.47 1662.67 2629.47 1639.58 2609.47 1651.12"/><polygon class="cls-7" points="2619.47 1679.99 2609.47 1674.22 2629.47 1662.67 2639.47 1668.44 2619.47 1679.99"/><polygon class="cls-13" points="2614.47 1665.56 2614.47 1654.01 2624.47 1648.24 2624.47 1659.78 2614.47 1665.56"/><ellipse class="cls-11" cx="2628.26" cy="1668.52" rx="3.45" ry="1.81"/><ellipse class="cls-11" cx="2619.47" cy="1673.56" rx="2.36" ry="1.36"/><ellipse class="cls-11" cx="2625.58" cy="1661.07" rx="2.22" ry="1.31" transform="translate(109.83 3484.2) rotate(-68.25)"/></g></g></g><g id="_перетаскиватель_опор"><g><polygon class="cls-1" points="2319.27 1685.63 2339.31 1697.15 2339.31 1720.22 2319.27 1708.72 2319.27 1685.63"/><polygon class="cls-11" points="2419.33 1674.05 2339.31 1720.22 2339.31 1697.15 2419.33 1650.95 2419.33 1674.05"/><polygon class="cls-4" points="2319.27 1685.63 2399.33 1639.41 2419.33 1650.95 2339.31 1697.15 2319.27 1685.63"/><polygon class="cls-1" points="2334.16 1682.61 2349.23 1691.38 2324.36 1601.86 2309.33 1598.99 2334.16 1682.61"/><polygon class="cls-11" points="2329.33 1598.99 2324.36 1601.86 2349.23 1691.38 2354.34 1688.5 2329.33 1598.99"/><polygon class="cls-4" points="2314.33 1596.1 2309.33 1598.99 2324.36 1601.86 2329.33 1598.99 2314.33 1596.1"/></g><g><path class="cls-9" d="M2421.03,1619.78c6.81-3.93,17.93,2.57,24.84,14.53,6.9,11.96,6.98,24.84,.16,28.77l-54.4,31.17-24.95-43.33,.94-.54,53.41-30.6Z"/><ellipse class="cls-11" cx="2380.12" cy="1672.02" rx="14.25" ry="25" transform="translate(-517.14 1414.07) rotate(-30)"/><ellipse class="cls-3" cx="2380.12" cy="1672.02" rx="11.4" ry="20" transform="translate(-517.14 1414.07) rotate(-30)"/><path class="cls-7" d="M2383.72,1658.49c2.29,2.06,4.46,4.71,6.27,7.84,5.52,9.57,5.58,19.87,.13,23.02-5.45,3.15-14.35-2.06-19.87-11.62-1.81-3.14-3.03-6.36-3.66-9.38l17.13-9.86Z"/><path class="cls-13" d="M2393.66,1675.75c1.28,6.16,.11,11.48-3.54,13.59-3.65,2.11-8.85,.46-13.54-3.73l17.08-9.86Z"/><g><path class="cls-4" d="M2392.46,1664.9c-1.76-3.04-3.79-5.73-5.95-7.98l53.37-30.64c2.18,2.26,4.22,4.96,5.99,8.03,6.9,11.96,6.98,24.84,.16,28.77l-53.41,30.6c6.81-3.93,6.74-16.82-.16-28.77Z"/><path class="cls-4" d="M2392.62,1693.68l-.99,.57-.04-.08c.35-.14,.7-.3,1.03-.49Z"/></g><path class="cls-1" d="M2396.43,1674.16l53.41-30.6c2.51,8.74,1.25,16.6-3.81,19.52l-53.41,30.6c5.06-2.92,6.31-10.77,3.8-19.52Z"/></g><g><g><path class="cls-11" d="M2443.82,1631.04l.52-.3v-5.77s-3.59,2.07-3.59,2.07c1.18,1.35,2.22,2.74,3.08,4Z"/><path class="cls-11" d="M2384.71,1659.39l-10.36,5.98v5.81l13.68-7.9c-1.11-1.54-2.24-2.82-3.32-3.88Z"/></g><g><path class="cls-4" d="M2440.75,1627.04l3.58-2.07-4.95-2.86-2.37,1.37c1.35,1.03,2.61,2.27,3.74,3.55Z"/><path class="cls-4" d="M2380.66,1656.13l-11.16,6.47,4.86,2.77,10.36-5.98c-1.51-1.48-2.92-2.53-4.05-3.26Z"/></g><polygon class="cls-3" points="2440.45 1615.66 2440.45 1622.72 2444.33 1624.97 2444.33 1613.42 2440.45 1615.66"/><polygon class="cls-3" points="2369.5 1662.6 2369.3 1668.28 2374.36 1671.18 2374.36 1665.37 2369.5 1662.6"/><polygon class="cls-3" points="2366.81 1655.3 2366.81 1666.82 2369.3 1668.28 2372.19 1666.62 2372.19 1655.07 2369.3 1656.71 2366.81 1655.3"/></g><g><polygon class="cls-11" points="2332.11 1608.93 2379.32 1581.68 2379.33 1575.9 2330.72 1603.96 2332.11 1608.93"/><polygon class="cls-4" points="2374.33 1573.01 2379.33 1575.9 2330.72 1603.96 2329.33 1598.99 2374.33 1573.01"/><polygon class="cls-4" points="2374.33 1578.78 2369.3 1581.65 2399.31 1598.98 2404.33 1596.1 2374.33 1578.78"/><polygon class="cls-1" points="2399.31 1598.98 2369.3 1581.65 2369.3 1587.46 2399.33 1604.76 2399.31 1598.98"/><polygon class="cls-1" points="2399.34 1593.21 2399.33 1604.76 2404.33 1607.65 2404.33 1596.1 2399.34 1593.21"/><polygon class="cls-4" points="2404.33 1590.33 2399.34 1593.21 2404.33 1596.1 2409.34 1593.21 2404.33 1590.33"/><polygon class="cls-11" points="2404.33 1596.1 2404.33 1607.65 2409.21 1604.83 2409.34 1593.21 2404.33 1596.1"/><polygon class="cls-1" points="2364.33 1648.07 2364.33 1653.84 2369.3 1656.71 2369.3 1650.97 2364.33 1648.07"/><polygon class="cls-4" points="2444.36 1601.86 2364.33 1648.07 2369.3 1650.97 2449.33 1604.76 2444.36 1601.86"/><polygon class="cls-11" points="2369.3 1656.71 2449.33 1610.54 2449.33 1604.76 2369.3 1650.97 2369.3 1656.71"/><line class="cls-10" x1="2369.3" y1="1648.07" x2="2401.83" y2="1606.21"/><line class="cls-10" x1="2409.34" y1="1602.72" x2="2444.33" y2="1604.76"/></g></g><g id="_2_аппарат"><g><polygon class="cls-3" points="2254.5 1740.54 2254.5 1757.86 2419.5 1853.13 2419.5 1835.81 2254.5 1740.54"/><polygon class="cls-11" points="2419.5 1835.81 2419.5 1853.13 2454.5 1832.92 2454.5 1815.6 2419.5 1835.81"/></g><g><path class="cls-11" d="M2458.01,1817.64c13.33,0,13.33-21.21,3.3-26.96l-5.11,2.95,1.81,24.01Z"/><path class="cls-1" d="M2456.2,1816.72c10.22,5.77,10.11-17.39,0-23.09l-164.89-95.33c-10-5.77-10,17.38,0,23.09l164.89,95.33Z"/><polygon class="cls-9" points="2296.32 1695.41 2291.31 1698.3 2456.2 1793.63 2461.31 1790.67 2296.32 1695.41"/></g><g><path class="cls-7" d="M2454.5,1815.6c5-2.89,5-14.43,0-17.32l-35,20.21v17.32s35-20.21,35-20.21Z"/><polygon class="cls-14" points="2294.5 1705.9 2259.36 1726.19 2419.5 1818.49 2454.5 1798.28 2294.5 1705.9"/></g><g><path class="cls-11" d="M2254.51,1723.23l-.31-.18s-.06-.03-.09-.05c-4.33-2.44-9.61,2.89-9.61,2.89l-2.5,7.43,7.5-7.22,5-2.88Z"/><path class="cls-11" d="M2416.2,1845.45c13.33,0,13.33-21.21,3.3-26.96l-5.11,2.95,1.81,24.01Z"/><path class="cls-1" d="M2414.39,1844.53c10.22,5.77,10.11-17.39,0-23.09l-164.89-95.33c-10-5.77-10,17.38,0,23.09l164.89,95.33Z"/><polygon class="cls-9" points="2254.51 1723.23 2249.5 1726.11 2414.39 1821.44 2419.5 1818.49 2254.51 1723.23"/></g><g><path class="cls-11" d="M2291.84,1681.27c-6.81-3.93-17.93,2.57-24.84,14.53-6.9,11.96-6.98,24.84-.16,28.77l152.72,88.17,24.95-43.33-.94-.54-151.73-87.6Z"/><ellipse class="cls-11" cx="2431.07" cy="1790.52" rx="25" ry="14.25" transform="translate(-335.1 3000.62) rotate(-60)"/><ellipse class="cls-3" cx="2431.07" cy="1790.52" rx="20" ry="11.4" transform="translate(-335.1 3000.62) rotate(-60)"/><path class="cls-7" d="M2427.47,1776.98c-2.29,2.06-4.46,4.71-6.27,7.84-5.52,9.57-5.58,19.87-.13,23.02,5.45,3.15,14.35-2.06,19.87-11.62,1.81-3.14,3.03-6.36,3.66-9.38l-17.13-9.86Z"/><path class="cls-13" d="M2417.53,1794.25c-1.28,6.16-.11,11.48,3.54,13.59,3.65,2.11,8.85,.46,13.54-3.73l-17.08-9.86Z"/><g><path class="cls-4" d="M2418.73,1783.4c1.76-3.04,3.79-5.73,5.95-7.98l-151.69-87.64c-2.18,2.26-4.22,4.96-5.99,8.03-6.9,11.96-6.98,24.84-.16,28.77l151.73,87.6c-6.81-3.93-6.74-16.82,.16-28.77Z"/><path class="cls-4" d="M2418.57,1812.17l.99,.57,.04-.08c-.35-.14-.7-.3-1.03-.49Z"/></g><path class="cls-1" d="M2414.76,1792.65l-151.73-87.6c-2.51,8.74-1.25,16.6,3.81,19.52l151.73,87.6c-5.06-2.92-6.31-10.77-3.8-19.52Z"/></g></g></g></svg>