<?xml version="1.0" encoding="UTF-8"?><svg id="_Слой_1" xmlns="http://www.w3.org/2000/svg" xmlns:xlink="http://www.w3.org/1999/xlink" viewBox="0 0 1920 10000"><defs><style>.cls-1{clip-path:url(#clippath-2);}.cls-2{clip-path:url(#clippath-1);}.cls-3{clip-path:url(#clippath-4);}.cls-4{clip-path:url(#clippath);}.cls-5,.cls-6{fill:none;}.cls-7{clip-path:url(#clippath-3);}.cls-6{stroke:#b3b3b3;stroke-miterlimit:10;stroke-width:.25px;}</style><clipPath id="clippath"><rect class="cls-5" x="-737.28" y="-3547.06" width="3394.55" height="3266.26"/></clipPath><clipPath id="clippath-1"><rect class="cls-5" x="-737.28" y="-280.8" width="3394.55" height="3266.26"/></clipPath><clipPath id="clippath-2"><rect class="cls-5" x="-737.28" y="2985.45" width="3394.55" height="3266.26"/></clipPath><clipPath id="clippath-3"><rect class="cls-5" x="-737.28" y="6251.71" width="3394.55" height="3266.26"/></clipPath><clipPath id="clippath-4"><rect class="cls-5" x="-737.28" y="9517.96" width="3394.55" height="3266.26"/></clipPath></defs><g class="cls-4"><g><line class="cls-6" x1="1870.78" y1="-4679.04" x2="1870.78" y2="544.8"/><line class="cls-6" x1="1782.38" y1="-4679.04" x2="1782.38" y2="544.8"/><line class="cls-6" x1="1693.98" y1="-4679.04" x2="1693.98" y2="544.8"/><line class="cls-6" x1="1605.58" y1="-4679.04" x2="1605.58" y2="544.8"/><line class="cls-6" x1="1517.18" y1="-4679.04" x2="1517.18" y2="544.8"/><line class="cls-6" x1="1428.78" y1="-4679.04" x2="1428.78" y2="544.8"/><line class="cls-6" x1="1340.38" y1="-4679.04" x2="1340.38" y2="544.8"/><line class="cls-6" x1="1251.98" y1="-4679.04" x2="1251.98" y2="544.8"/><line class="cls-6" x1="1163.58" y1="-4679.04" x2="1163.58" y2="544.8"/><line class="cls-6" x1="1075.18" y1="-4679.04" x2="1075.18" y2="544.8"/><line class="cls-6" x1="986.78" y1="-4679.04" x2="986.78" y2="544.8"/><line class="cls-6" x1="898.38" y1="-4679.04" x2="898.38" y2="544.8"/><line class="cls-6" x1="809.98" y1="-4679.04" x2="809.98" y2="544.8"/><line class="cls-6" x1="721.58" y1="-4679.04" x2="721.58" y2="544.8"/><line class="cls-6" x1="633.18" y1="-4679.04" x2="633.18" y2="544.8"/><line class="cls-6" x1="544.78" y1="-4679.04" x2="544.78" y2="544.8"/><line class="cls-6" x1="456.38" y1="-4679.04" x2="456.38" y2="544.8"/><line class="cls-6" x1="367.98" y1="-4679.04" x2="367.98" y2="544.8"/><line class="cls-6" x1="279.58" y1="-4679.04" x2="279.58" y2="544.8"/><line class="cls-6" x1="191.18" y1="-4679.04" x2="191.18" y2="544.8"/><line class="cls-6" x1="102.78" y1="-4679.04" x2="102.78" y2="544.8"/><line class="cls-6" x1="14.38" y1="-4679.04" x2="14.38" y2="544.8"/></g><g><line class="cls-6" x1="-1717.21" y1="-2607.51" x2="2806.77" y2="4.41"/><line class="cls-6" x1="-1761.41" y1="-2530.96" x2="2762.57" y2="80.96"/><line class="cls-6" x1="-1805.61" y1="-2454.4" x2="2718.37" y2="157.52"/><line class="cls-6" x1="-1849.81" y1="-2377.84" x2="2674.17" y2="234.08"/><line class="cls-6" x1="-1894.01" y1="-2301.29" x2="2629.97" y2="310.63"/><line class="cls-6" x1="-1938.21" y1="-2224.73" x2="2585.77" y2="387.19"/><line class="cls-6" x1="-1982.41" y1="-2148.18" x2="2541.57" y2="463.75"/><line class="cls-6" x1="-2026.61" y1="-2071.62" x2="2497.37" y2="540.3"/><line class="cls-6" x1="-2070.81" y1="-1995.06" x2="2453.17" y2="616.86"/><line class="cls-6" x1="-2115.01" y1="-1918.51" x2="2408.97" y2="693.41"/><line class="cls-6" x1="-2159.21" y1="-1841.95" x2="2364.77" y2="769.97"/><line class="cls-6" x1="-2203.41" y1="-1765.39" x2="2320.57" y2="846.53"/><line class="cls-6" x1="-2247.61" y1="-1688.84" x2="2276.37" y2="923.08"/><line class="cls-6" x1="-2291.81" y1="-1612.28" x2="2232.17" y2="999.64"/><line class="cls-6" x1="-2336.01" y1="-1535.72" x2="2187.97" y2="1076.2"/><line class="cls-6" x1="-2380.21" y1="-1459.17" x2="2143.77" y2="1152.75"/><line class="cls-6" x1="-2424.41" y1="-1382.61" x2="2099.57" y2="1229.31"/><line class="cls-6" x1="-2468.61" y1="-1306.05" x2="2055.37" y2="1305.87"/><line class="cls-6" x1="-2512.81" y1="-1229.5" x2="2011.17" y2="1382.42"/><line class="cls-6" x1="-2557.01" y1="-1152.94" x2="1966.97" y2="1458.98"/><line class="cls-6" x1="-2601.21" y1="-1076.38" x2="1922.77" y2="1535.54"/></g><g><line class="cls-6" x1="4574.77" y1="-1076.38" x2="50.79" y2="1535.54"/><line class="cls-6" x1="4530.57" y1="-1152.94" x2="6.59" y2="1458.98"/><line class="cls-6" x1="4486.37" y1="-1229.5" x2="-37.61" y2="1382.42"/><line class="cls-6" x1="4442.17" y1="-1306.05" x2="-81.81" y2="1305.87"/><line class="cls-6" x1="4397.97" y1="-1382.61" x2="-126.01" y2="1229.31"/><line class="cls-6" x1="4353.77" y1="-1459.17" x2="-170.21" y2="1152.75"/><line class="cls-6" x1="4309.57" y1="-1535.72" x2="-214.41" y2="1076.2"/><line class="cls-6" x1="4265.37" y1="-1612.28" x2="-258.61" y2="999.64"/><line class="cls-6" x1="4221.17" y1="-1688.84" x2="-302.81" y2="923.08"/><line class="cls-6" x1="4176.97" y1="-1765.39" x2="-347.01" y2="846.53"/><line class="cls-6" x1="4132.77" y1="-1841.95" x2="-391.21" y2="769.97"/><line class="cls-6" x1="4088.57" y1="-1918.51" x2="-435.41" y2="693.41"/><line class="cls-6" x1="4044.37" y1="-1995.06" x2="-479.61" y2="616.86"/><line class="cls-6" x1="4000.17" y1="-2071.62" x2="-523.81" y2="540.3"/><line class="cls-6" x1="3955.97" y1="-2148.18" x2="-568.01" y2="463.75"/><line class="cls-6" x1="3911.77" y1="-2224.73" x2="-612.21" y2="387.19"/><line class="cls-6" x1="3867.57" y1="-2301.29" x2="-656.41" y2="310.63"/><line class="cls-6" x1="3823.37" y1="-2377.84" x2="-700.61" y2="234.08"/><line class="cls-6" x1="3779.17" y1="-2454.4" x2="-744.81" y2="157.52"/><line class="cls-6" x1="3734.97" y1="-2530.96" x2="-789.01" y2="80.96"/><line class="cls-6" x1="3690.77" y1="-2607.51" x2="-833.21" y2="4.41"/></g></g><g class="cls-2"><g><line class="cls-6" x1="1870.78" y1="-1412.78" x2="1870.78" y2="3811.06"/><line class="cls-6" x1="1782.38" y1="-1412.78" x2="1782.38" y2="3811.06"/><line class="cls-6" x1="1693.98" y1="-1412.78" x2="1693.98" y2="3811.06"/><line class="cls-6" x1="1605.58" y1="-1412.78" x2="1605.58" y2="3811.06"/><line class="cls-6" x1="1517.18" y1="-1412.78" x2="1517.18" y2="3811.06"/><line class="cls-6" x1="1428.78" y1="-1412.78" x2="1428.78" y2="3811.06"/><line class="cls-6" x1="1340.38" y1="-1412.78" x2="1340.38" y2="3811.06"/><line class="cls-6" x1="1251.98" y1="-1412.78" x2="1251.98" y2="3811.06"/><line class="cls-6" x1="1163.58" y1="-1412.78" x2="1163.58" y2="3811.06"/><line class="cls-6" x1="1075.18" y1="-1412.78" x2="1075.18" y2="3811.06"/><line class="cls-6" x1="986.78" y1="-1412.78" x2="986.78" y2="3811.06"/><line class="cls-6" x1="898.38" y1="-1412.78" x2="898.38" y2="3811.06"/><line class="cls-6" x1="809.98" y1="-1412.78" x2="809.98" y2="3811.06"/><line class="cls-6" x1="721.58" y1="-1412.78" x2="721.58" y2="3811.06"/><line class="cls-6" x1="633.18" y1="-1412.78" x2="633.18" y2="3811.06"/><line class="cls-6" x1="544.78" y1="-1412.78" x2="544.78" y2="3811.06"/><line class="cls-6" x1="456.38" y1="-1412.78" x2="456.38" y2="3811.06"/><line class="cls-6" x1="367.98" y1="-1412.78" x2="367.98" y2="3811.06"/><line class="cls-6" x1="279.58" y1="-1412.78" x2="279.58" y2="3811.06"/><line class="cls-6" x1="191.18" y1="-1412.78" x2="191.18" y2="3811.06"/><line class="cls-6" x1="102.78" y1="-1412.78" x2="102.78" y2="3811.06"/><line class="cls-6" x1="14.38" y1="-1412.78" x2="14.38" y2="3811.06"/></g><g><line class="cls-6" x1="50.79" y1="-2403.52" x2="4574.77" y2="208.4"/><line class="cls-6" x1="6.59" y1="-2326.96" x2="4530.57" y2="284.96"/><line class="cls-6" x1="-37.61" y1="-2250.41" x2="4486.37" y2="361.51"/><line class="cls-6" x1="-81.81" y1="-2173.85" x2="4442.17" y2="438.07"/><line class="cls-6" x1="-126.01" y1="-2097.29" x2="4397.97" y2="514.63"/><line class="cls-6" x1="-170.21" y1="-2020.74" x2="4353.77" y2="591.18"/><line class="cls-6" x1="-214.41" y1="-1944.18" x2="4309.57" y2="667.74"/><line class="cls-6" x1="-258.61" y1="-1867.62" x2="4265.37" y2="744.3"/><line class="cls-6" x1="-302.81" y1="-1791.07" x2="4221.17" y2="820.85"/><line class="cls-6" x1="-347.01" y1="-1714.51" x2="4176.97" y2="897.41"/><line class="cls-6" x1="-391.21" y1="-1637.95" x2="4132.77" y2="973.97"/><line class="cls-6" x1="-435.41" y1="-1561.4" x2="4088.57" y2="1050.52"/><line class="cls-6" x1="-479.61" y1="-1484.84" x2="4044.37" y2="1127.08"/><line class="cls-6" x1="-523.81" y1="-1408.28" x2="4000.17" y2="1203.64"/><line class="cls-6" x1="-568.01" y1="-1331.73" x2="3955.97" y2="1280.19"/><line class="cls-6" x1="-612.21" y1="-1255.17" x2="3911.77" y2="1356.75"/><line class="cls-6" x1="-656.41" y1="-1178.62" x2="3867.57" y2="1433.31"/><line class="cls-6" x1="-700.61" y1="-1102.06" x2="3823.37" y2="1509.86"/><line class="cls-6" x1="-744.81" y1="-1025.5" x2="3779.17" y2="1586.42"/><line class="cls-6" x1="-789.01" y1="-948.95" x2="3734.97" y2="1662.97"/><line class="cls-6" x1="-833.21" y1="-872.39" x2="3690.77" y2="1739.53"/><line class="cls-6" x1="-877.41" y1="-795.83" x2="3646.57" y2="1816.09"/><line class="cls-6" x1="-921.61" y1="-719.28" x2="3602.37" y2="1892.64"/><line class="cls-6" x1="-965.81" y1="-642.72" x2="3558.17" y2="1969.2"/><line class="cls-6" x1="-1010.01" y1="-566.16" x2="3513.97" y2="2045.76"/><line class="cls-6" x1="-1054.21" y1="-489.61" x2="3469.77" y2="2122.31"/><line class="cls-6" x1="-1098.41" y1="-413.05" x2="3425.57" y2="2198.87"/><line class="cls-6" x1="-1142.61" y1="-336.49" x2="3381.37" y2="2275.43"/><line class="cls-6" x1="-1186.81" y1="-259.94" x2="3337.17" y2="2351.98"/><line class="cls-6" x1="-1231.01" y1="-183.38" x2="3292.97" y2="2428.54"/><line class="cls-6" x1="-1275.21" y1="-106.82" x2="3248.77" y2="2505.1"/><line class="cls-6" x1="-1319.41" y1="-30.27" x2="3204.57" y2="2581.65"/><line class="cls-6" x1="-1363.61" y1="46.29" x2="3160.37" y2="2658.21"/><line class="cls-6" x1="-1407.81" y1="122.85" x2="3116.17" y2="2734.77"/><line class="cls-6" x1="-1452.01" y1="199.4" x2="3071.97" y2="2811.32"/><line class="cls-6" x1="-1496.21" y1="275.96" x2="3027.77" y2="2887.88"/><line class="cls-6" x1="-1540.41" y1="352.51" x2="2983.57" y2="2964.44"/><line class="cls-6" x1="-1584.61" y1="429.07" x2="2939.37" y2="3040.99"/><line class="cls-6" x1="-1628.81" y1="505.63" x2="2895.17" y2="3117.55"/><line class="cls-6" x1="-1673.01" y1="582.18" x2="2850.97" y2="3194.1"/><line class="cls-6" x1="-1717.21" y1="658.74" x2="2806.77" y2="3270.66"/><line class="cls-6" x1="-1761.41" y1="735.3" x2="2762.57" y2="3347.22"/><line class="cls-6" x1="-1805.61" y1="811.85" x2="2718.37" y2="3423.77"/><line class="cls-6" x1="-1849.81" y1="888.41" x2="2674.17" y2="3500.33"/><line class="cls-6" x1="-1894.01" y1="964.97" x2="2629.97" y2="3576.89"/><line class="cls-6" x1="-1938.21" y1="1041.52" x2="2585.77" y2="3653.44"/><line class="cls-6" x1="-1982.41" y1="1118.08" x2="2541.57" y2="3730"/><line class="cls-6" x1="-2026.61" y1="1194.64" x2="2497.37" y2="3806.56"/><line class="cls-6" x1="-2070.81" y1="1271.19" x2="2453.17" y2="3883.11"/><line class="cls-6" x1="-2115.01" y1="1347.75" x2="2408.97" y2="3959.67"/><line class="cls-6" x1="-2159.21" y1="1424.31" x2="2364.77" y2="4036.23"/><line class="cls-6" x1="-2203.41" y1="1500.86" x2="2320.57" y2="4112.78"/><line class="cls-6" x1="-2247.61" y1="1577.42" x2="2276.37" y2="4189.34"/><line class="cls-6" x1="-2291.81" y1="1653.98" x2="2232.17" y2="4265.9"/><line class="cls-6" x1="-2336.01" y1="1730.53" x2="2187.97" y2="4342.45"/><line class="cls-6" x1="-2380.21" y1="1807.09" x2="2143.77" y2="4419.01"/><line class="cls-6" x1="-2424.41" y1="1883.64" x2="2099.57" y2="4495.57"/><line class="cls-6" x1="-2468.61" y1="1960.2" x2="2055.37" y2="4572.12"/><line class="cls-6" x1="-2512.81" y1="2036.76" x2="2011.17" y2="4648.68"/><line class="cls-6" x1="-2557.01" y1="2113.31" x2="1966.97" y2="4725.23"/><line class="cls-6" x1="-2601.21" y1="2189.87" x2="1922.77" y2="4801.79"/></g><g><line class="cls-6" x1="4574.77" y1="2189.87" x2="50.79" y2="4801.79"/><line class="cls-6" x1="4530.57" y1="2113.31" x2="6.59" y2="4725.23"/><line class="cls-6" x1="4486.37" y1="2036.76" x2="-37.61" y2="4648.68"/><line class="cls-6" x1="4442.17" y1="1960.2" x2="-81.81" y2="4572.12"/><line class="cls-6" x1="4397.97" y1="1883.64" x2="-126.01" y2="4495.57"/><line class="cls-6" x1="4353.77" y1="1807.09" x2="-170.21" y2="4419.01"/><line class="cls-6" x1="4309.57" y1="1730.53" x2="-214.41" y2="4342.45"/><line class="cls-6" x1="4265.37" y1="1653.98" x2="-258.61" y2="4265.9"/><line class="cls-6" x1="4221.17" y1="1577.42" x2="-302.81" y2="4189.34"/><line class="cls-6" x1="4176.97" y1="1500.86" x2="-347.01" y2="4112.78"/><line class="cls-6" x1="4132.77" y1="1424.31" x2="-391.21" y2="4036.23"/><line class="cls-6" x1="4088.57" y1="1347.75" x2="-435.41" y2="3959.67"/><line class="cls-6" x1="4044.37" y1="1271.19" x2="-479.61" y2="3883.11"/><line class="cls-6" x1="4000.17" y1="1194.64" x2="-523.81" y2="3806.56"/><line class="cls-6" x1="3955.97" y1="1118.08" x2="-568.01" y2="3730"/><line class="cls-6" x1="3911.77" y1="1041.52" x2="-612.21" y2="3653.44"/><line class="cls-6" x1="3867.57" y1="964.97" x2="-656.41" y2="3576.89"/><line class="cls-6" x1="3823.37" y1="888.41" x2="-700.61" y2="3500.33"/><line class="cls-6" x1="3779.17" y1="811.85" x2="-744.81" y2="3423.77"/><line class="cls-6" x1="3734.97" y1="735.3" x2="-789.01" y2="3347.22"/><line class="cls-6" x1="3690.77" y1="658.74" x2="-833.21" y2="3270.66"/><line class="cls-6" x1="3646.57" y1="582.18" x2="-877.41" y2="3194.1"/><line class="cls-6" x1="3602.37" y1="505.63" x2="-921.61" y2="3117.55"/><line class="cls-6" x1="3558.17" y1="429.07" x2="-965.81" y2="3040.99"/><line class="cls-6" x1="3513.97" y1="352.51" x2="-1010.01" y2="2964.44"/><line class="cls-6" x1="3469.77" y1="275.96" x2="-1054.21" y2="2887.88"/><line class="cls-6" x1="3425.57" y1="199.4" x2="-1098.41" y2="2811.32"/><line class="cls-6" x1="3381.37" y1="122.85" x2="-1142.61" y2="2734.77"/><line class="cls-6" x1="3337.17" y1="46.29" x2="-1186.81" y2="2658.21"/><line class="cls-6" x1="3292.97" y1="-30.27" x2="-1231.01" y2="2581.65"/><line class="cls-6" x1="3248.77" y1="-106.82" x2="-1275.21" y2="2505.1"/><line class="cls-6" x1="3204.57" y1="-183.38" x2="-1319.41" y2="2428.54"/><line class="cls-6" x1="3160.37" y1="-259.94" x2="-1363.61" y2="2351.98"/><line class="cls-6" x1="3116.17" y1="-336.49" x2="-1407.81" y2="2275.43"/><line class="cls-6" x1="3071.97" y1="-413.05" x2="-1452.01" y2="2198.87"/><line class="cls-6" x1="3027.77" y1="-489.61" x2="-1496.21" y2="2122.31"/><line class="cls-6" x1="2983.57" y1="-566.16" x2="-1540.41" y2="2045.76"/><line class="cls-6" x1="2939.37" y1="-642.72" x2="-1584.61" y2="1969.2"/><line class="cls-6" x1="2895.17" y1="-719.28" x2="-1628.81" y2="1892.64"/><line class="cls-6" x1="2850.97" y1="-795.83" x2="-1673.01" y2="1816.09"/><line class="cls-6" x1="2806.77" y1="-872.39" x2="-1717.21" y2="1739.53"/><line class="cls-6" x1="2762.57" y1="-948.95" x2="-1761.41" y2="1662.97"/><line class="cls-6" x1="2718.37" y1="-1025.5" x2="-1805.61" y2="1586.42"/><line class="cls-6" x1="2674.17" y1="-1102.06" x2="-1849.81" y2="1509.86"/><line class="cls-6" x1="2629.97" y1="-1178.62" x2="-1894.01" y2="1433.31"/><line class="cls-6" x1="2585.77" y1="-1255.17" x2="-1938.21" y2="1356.75"/><line class="cls-6" x1="2541.57" y1="-1331.73" x2="-1982.41" y2="1280.19"/><line class="cls-6" x1="2497.37" y1="-1408.28" x2="-2026.61" y2="1203.64"/><line class="cls-6" x1="2453.17" y1="-1484.84" x2="-2070.81" y2="1127.08"/><line class="cls-6" x1="2408.97" y1="-1561.4" x2="-2115.01" y2="1050.52"/><line class="cls-6" x1="2364.77" y1="-1637.95" x2="-2159.21" y2="973.97"/><line class="cls-6" x1="2320.57" y1="-1714.51" x2="-2203.41" y2="897.41"/><line class="cls-6" x1="2276.37" y1="-1791.07" x2="-2247.61" y2="820.85"/><line class="cls-6" x1="2232.17" y1="-1867.62" x2="-2291.81" y2="744.3"/><line class="cls-6" x1="2187.97" y1="-1944.18" x2="-2336.01" y2="667.74"/><line class="cls-6" x1="2143.77" y1="-2020.74" x2="-2380.21" y2="591.18"/><line class="cls-6" x1="2099.57" y1="-2097.29" x2="-2424.41" y2="514.63"/><line class="cls-6" x1="2055.37" y1="-2173.85" x2="-2468.61" y2="438.07"/><line class="cls-6" x1="2011.17" y1="-2250.41" x2="-2512.81" y2="361.51"/><line class="cls-6" x1="1966.97" y1="-2326.96" x2="-2557.01" y2="284.96"/><line class="cls-6" x1="1922.77" y1="-2403.52" x2="-2601.21" y2="208.4"/></g></g><g class="cls-1"><g><line class="cls-6" x1="1870.78" y1="1853.47" x2="1870.78" y2="7077.31"/><line class="cls-6" x1="1782.38" y1="1853.47" x2="1782.38" y2="7077.31"/><line class="cls-6" x1="1693.98" y1="1853.47" x2="1693.98" y2="7077.31"/><line class="cls-6" x1="1605.58" y1="1853.47" x2="1605.58" y2="7077.31"/><line class="cls-6" x1="1517.18" y1="1853.47" x2="1517.18" y2="7077.31"/><line class="cls-6" x1="1428.78" y1="1853.47" x2="1428.78" y2="7077.31"/><line class="cls-6" x1="1340.38" y1="1853.47" x2="1340.38" y2="7077.31"/><line class="cls-6" x1="1251.98" y1="1853.47" x2="1251.98" y2="7077.31"/><line class="cls-6" x1="1163.58" y1="1853.47" x2="1163.58" y2="7077.31"/><line class="cls-6" x1="1075.18" y1="1853.47" x2="1075.18" y2="7077.31"/><line class="cls-6" x1="986.78" y1="1853.47" x2="986.78" y2="7077.31"/><line class="cls-6" x1="898.38" y1="1853.47" x2="898.38" y2="7077.31"/><line class="cls-6" x1="809.98" y1="1853.47" x2="809.98" y2="7077.31"/><line class="cls-6" x1="721.58" y1="1853.47" x2="721.58" y2="7077.31"/><line class="cls-6" x1="633.18" y1="1853.47" x2="633.18" y2="7077.31"/><line class="cls-6" x1="544.78" y1="1853.47" x2="544.78" y2="7077.31"/><line class="cls-6" x1="456.38" y1="1853.47" x2="456.38" y2="7077.31"/><line class="cls-6" x1="367.98" y1="1853.47" x2="367.98" y2="7077.31"/><line class="cls-6" x1="279.58" y1="1853.47" x2="279.58" y2="7077.31"/><line class="cls-6" x1="191.18" y1="1853.47" x2="191.18" y2="7077.31"/><line class="cls-6" x1="102.78" y1="1853.47" x2="102.78" y2="7077.31"/><line class="cls-6" x1="14.38" y1="1853.47" x2="14.38" y2="7077.31"/></g><g><line class="cls-6" x1="50.79" y1="862.74" x2="4574.77" y2="3474.66"/><line class="cls-6" x1="6.59" y1="939.29" x2="4530.57" y2="3551.21"/><line class="cls-6" x1="-37.61" y1="1015.85" x2="4486.37" y2="3627.77"/><line class="cls-6" x1="-81.81" y1="1092.41" x2="4442.17" y2="3704.33"/><line class="cls-6" x1="-126.01" y1="1168.96" x2="4397.97" y2="3780.88"/><line class="cls-6" x1="-170.21" y1="1245.52" x2="4353.77" y2="3857.44"/><line class="cls-6" x1="-214.41" y1="1322.07" x2="4309.57" y2="3934"/><line class="cls-6" x1="-258.61" y1="1398.63" x2="4265.37" y2="4010.55"/><line class="cls-6" x1="-302.81" y1="1475.19" x2="4221.17" y2="4087.11"/><line class="cls-6" x1="-347.01" y1="1551.74" x2="4176.97" y2="4163.66"/><line class="cls-6" x1="-391.21" y1="1628.3" x2="4132.77" y2="4240.22"/><line class="cls-6" x1="-435.41" y1="1704.86" x2="4088.57" y2="4316.78"/><line class="cls-6" x1="-479.61" y1="1781.41" x2="4044.37" y2="4393.33"/><line class="cls-6" x1="-523.81" y1="1857.97" x2="4000.17" y2="4469.89"/><line class="cls-6" x1="-568.01" y1="1934.53" x2="3955.97" y2="4546.45"/><line class="cls-6" x1="-612.21" y1="2011.08" x2="3911.77" y2="4623"/><line class="cls-6" x1="-656.41" y1="2087.64" x2="3867.57" y2="4699.56"/><line class="cls-6" x1="-700.61" y1="2164.2" x2="3823.37" y2="4776.12"/><line class="cls-6" x1="-744.81" y1="2240.75" x2="3779.17" y2="4852.67"/><line class="cls-6" x1="-789.01" y1="2317.31" x2="3734.97" y2="4929.23"/><line class="cls-6" x1="-833.21" y1="2393.87" x2="3690.77" y2="5005.79"/><line class="cls-6" x1="-877.41" y1="2470.42" x2="3646.57" y2="5082.34"/><line class="cls-6" x1="-921.61" y1="2546.98" x2="3602.37" y2="5158.9"/><line class="cls-6" x1="-965.81" y1="2623.54" x2="3558.17" y2="5235.46"/><line class="cls-6" x1="-1010.01" y1="2700.09" x2="3513.97" y2="5312.01"/><line class="cls-6" x1="-1054.21" y1="2776.65" x2="3469.77" y2="5388.57"/><line class="cls-6" x1="-1098.41" y1="2853.2" x2="3425.57" y2="5465.13"/><line class="cls-6" x1="-1142.61" y1="2929.76" x2="3381.37" y2="5541.68"/><line class="cls-6" x1="-1186.81" y1="3006.32" x2="3337.17" y2="5618.24"/><line class="cls-6" x1="-1231.01" y1="3082.87" x2="3292.97" y2="5694.79"/><line class="cls-6" x1="-1275.21" y1="3159.43" x2="3248.77" y2="5771.35"/><line class="cls-6" x1="-1319.41" y1="3235.99" x2="3204.57" y2="5847.91"/><line class="cls-6" x1="-1363.61" y1="3312.54" x2="3160.37" y2="5924.46"/><line class="cls-6" x1="-1407.81" y1="3389.1" x2="3116.17" y2="6001.02"/><line class="cls-6" x1="-1452.01" y1="3465.66" x2="3071.97" y2="6077.58"/><line class="cls-6" x1="-1496.21" y1="3542.21" x2="3027.77" y2="6154.13"/><line class="cls-6" x1="-1540.41" y1="3618.77" x2="2983.57" y2="6230.69"/><line class="cls-6" x1="-1584.61" y1="3695.33" x2="2939.37" y2="6307.25"/><line class="cls-6" x1="-1628.81" y1="3771.88" x2="2895.17" y2="6383.8"/><line class="cls-6" x1="-1673.01" y1="3848.44" x2="2850.97" y2="6460.36"/><line class="cls-6" x1="-1717.21" y1="3925" x2="2806.77" y2="6536.92"/><line class="cls-6" x1="-1761.41" y1="4001.55" x2="2762.57" y2="6613.47"/><line class="cls-6" x1="-1805.61" y1="4078.11" x2="2718.37" y2="6690.03"/><line class="cls-6" x1="-1849.81" y1="4154.67" x2="2674.17" y2="6766.59"/><line class="cls-6" x1="-1894.01" y1="4231.22" x2="2629.97" y2="6843.14"/><line class="cls-6" x1="-1938.21" y1="4307.78" x2="2585.77" y2="6919.7"/><line class="cls-6" x1="-1982.41" y1="4384.34" x2="2541.57" y2="6996.26"/><line class="cls-6" x1="-2026.61" y1="4460.89" x2="2497.37" y2="7072.81"/><line class="cls-6" x1="-2070.81" y1="4537.45" x2="2453.17" y2="7149.37"/><line class="cls-6" x1="-2115.01" y1="4614" x2="2408.97" y2="7225.92"/><line class="cls-6" x1="-2159.21" y1="4690.56" x2="2364.77" y2="7302.48"/><line class="cls-6" x1="-2203.41" y1="4767.12" x2="2320.57" y2="7379.04"/><line class="cls-6" x1="-2247.61" y1="4843.67" x2="2276.37" y2="7455.59"/><line class="cls-6" x1="-2291.81" y1="4920.23" x2="2232.17" y2="7532.15"/><line class="cls-6" x1="-2336.01" y1="4996.79" x2="2187.97" y2="7608.71"/><line class="cls-6" x1="-2380.21" y1="5073.34" x2="2143.77" y2="7685.26"/><line class="cls-6" x1="-2424.41" y1="5149.9" x2="2099.57" y2="7761.82"/><line class="cls-6" x1="-2468.61" y1="5226.46" x2="2055.37" y2="7838.38"/><line class="cls-6" x1="-2512.81" y1="5303.01" x2="2011.17" y2="7914.93"/><line class="cls-6" x1="-2557.01" y1="5379.57" x2="1966.97" y2="7991.49"/><line class="cls-6" x1="-2601.21" y1="5456.13" x2="1922.77" y2="8068.05"/></g><g><line class="cls-6" x1="4574.77" y1="5456.13" x2="50.79" y2="8068.05"/><line class="cls-6" x1="4530.57" y1="5379.57" x2="6.59" y2="7991.49"/><line class="cls-6" x1="4486.37" y1="5303.01" x2="-37.61" y2="7914.93"/><line class="cls-6" x1="4442.17" y1="5226.46" x2="-81.81" y2="7838.38"/><line class="cls-6" x1="4397.97" y1="5149.9" x2="-126.01" y2="7761.82"/><line class="cls-6" x1="4353.77" y1="5073.34" x2="-170.21" y2="7685.26"/><line class="cls-6" x1="4309.57" y1="4996.79" x2="-214.41" y2="7608.71"/><line class="cls-6" x1="4265.37" y1="4920.23" x2="-258.61" y2="7532.15"/><line class="cls-6" x1="4221.17" y1="4843.67" x2="-302.81" y2="7455.59"/><line class="cls-6" x1="4176.97" y1="4767.12" x2="-347.01" y2="7379.04"/><line class="cls-6" x1="4132.77" y1="4690.56" x2="-391.21" y2="7302.48"/><line class="cls-6" x1="4088.57" y1="4614" x2="-435.41" y2="7225.92"/><line class="cls-6" x1="4044.37" y1="4537.45" x2="-479.61" y2="7149.37"/><line class="cls-6" x1="4000.17" y1="4460.89" x2="-523.81" y2="7072.81"/><line class="cls-6" x1="3955.97" y1="4384.34" x2="-568.01" y2="6996.26"/><line class="cls-6" x1="3911.77" y1="4307.78" x2="-612.21" y2="6919.7"/><line class="cls-6" x1="3867.57" y1="4231.22" x2="-656.41" y2="6843.14"/><line class="cls-6" x1="3823.37" y1="4154.67" x2="-700.61" y2="6766.59"/><line class="cls-6" x1="3779.17" y1="4078.11" x2="-744.81" y2="6690.03"/><line class="cls-6" x1="3734.97" y1="4001.55" x2="-789.01" y2="6613.47"/><line class="cls-6" x1="3690.77" y1="3925" x2="-833.21" y2="6536.92"/><line class="cls-6" x1="3646.57" y1="3848.44" x2="-877.41" y2="6460.36"/><line class="cls-6" x1="3602.37" y1="3771.88" x2="-921.61" y2="6383.8"/><line class="cls-6" x1="3558.17" y1="3695.33" x2="-965.81" y2="6307.25"/><line class="cls-6" x1="3513.97" y1="3618.77" x2="-1010.01" y2="6230.69"/><line class="cls-6" x1="3469.77" y1="3542.21" x2="-1054.21" y2="6154.13"/><line class="cls-6" x1="3425.57" y1="3465.66" x2="-1098.41" y2="6077.58"/><line class="cls-6" x1="3381.37" y1="3389.1" x2="-1142.61" y2="6001.02"/><line class="cls-6" x1="3337.17" y1="3312.54" x2="-1186.81" y2="5924.46"/><line class="cls-6" x1="3292.97" y1="3235.99" x2="-1231.01" y2="5847.91"/><line class="cls-6" x1="3248.77" y1="3159.43" x2="-1275.21" y2="5771.35"/><line class="cls-6" x1="3204.57" y1="3082.87" x2="-1319.41" y2="5694.79"/><line class="cls-6" x1="3160.37" y1="3006.32" x2="-1363.61" y2="5618.24"/><line class="cls-6" x1="3116.17" y1="2929.76" x2="-1407.81" y2="5541.68"/><line class="cls-6" x1="3071.97" y1="2853.2" x2="-1452.01" y2="5465.13"/><line class="cls-6" x1="3027.77" y1="2776.65" x2="-1496.21" y2="5388.57"/><line class="cls-6" x1="2983.57" y1="2700.09" x2="-1540.41" y2="5312.01"/><line class="cls-6" x1="2939.37" y1="2623.54" x2="-1584.61" y2="5235.46"/><line class="cls-6" x1="2895.17" y1="2546.98" x2="-1628.81" y2="5158.9"/><line class="cls-6" x1="2850.97" y1="2470.42" x2="-1673.01" y2="5082.34"/><line class="cls-6" x1="2806.77" y1="2393.87" x2="-1717.21" y2="5005.79"/><line class="cls-6" x1="2762.57" y1="2317.31" x2="-1761.41" y2="4929.23"/><line class="cls-6" x1="2718.37" y1="2240.75" x2="-1805.61" y2="4852.67"/><line class="cls-6" x1="2674.17" y1="2164.2" x2="-1849.81" y2="4776.12"/><line class="cls-6" x1="2629.97" y1="2087.64" x2="-1894.01" y2="4699.56"/><line class="cls-6" x1="2585.77" y1="2011.08" x2="-1938.21" y2="4623"/><line class="cls-6" x1="2541.57" y1="1934.53" x2="-1982.41" y2="4546.45"/><line class="cls-6" x1="2497.37" y1="1857.97" x2="-2026.61" y2="4469.89"/><line class="cls-6" x1="2453.17" y1="1781.41" x2="-2070.81" y2="4393.33"/><line class="cls-6" x1="2408.97" y1="1704.86" x2="-2115.01" y2="4316.78"/><line class="cls-6" x1="2364.77" y1="1628.3" x2="-2159.21" y2="4240.22"/><line class="cls-6" x1="2320.57" y1="1551.74" x2="-2203.41" y2="4163.66"/><line class="cls-6" x1="2276.37" y1="1475.19" x2="-2247.61" y2="4087.11"/><line class="cls-6" x1="2232.17" y1="1398.63" x2="-2291.81" y2="4010.55"/><line class="cls-6" x1="2187.97" y1="1322.07" x2="-2336.01" y2="3934"/><line class="cls-6" x1="2143.77" y1="1245.52" x2="-2380.21" y2="3857.44"/><line class="cls-6" x1="2099.57" y1="1168.96" x2="-2424.41" y2="3780.88"/><line class="cls-6" x1="2055.37" y1="1092.41" x2="-2468.61" y2="3704.33"/><line class="cls-6" x1="2011.17" y1="1015.85" x2="-2512.81" y2="3627.77"/><line class="cls-6" x1="1966.97" y1="939.29" x2="-2557.01" y2="3551.21"/><line class="cls-6" x1="1922.77" y1="862.74" x2="-2601.21" y2="3474.66"/></g></g><g class="cls-7"><g><line class="cls-6" x1="1870.78" y1="5119.73" x2="1870.78" y2="10343.57"/><line class="cls-6" x1="1782.38" y1="5119.73" x2="1782.38" y2="10343.57"/><line class="cls-6" x1="1693.98" y1="5119.73" x2="1693.98" y2="10343.57"/><line class="cls-6" x1="1605.58" y1="5119.73" x2="1605.58" y2="10343.57"/><line class="cls-6" x1="1517.18" y1="5119.73" x2="1517.18" y2="10343.57"/><line class="cls-6" x1="1428.78" y1="5119.73" x2="1428.78" y2="10343.57"/><line class="cls-6" x1="1340.38" y1="5119.73" x2="1340.38" y2="10343.57"/><line class="cls-6" x1="1251.98" y1="5119.73" x2="1251.98" y2="10343.57"/><line class="cls-6" x1="1163.58" y1="5119.73" x2="1163.58" y2="10343.57"/><line class="cls-6" x1="1075.18" y1="5119.73" x2="1075.18" y2="10343.57"/><line class="cls-6" x1="986.78" y1="5119.73" x2="986.78" y2="10343.57"/><line class="cls-6" x1="898.38" y1="5119.73" x2="898.38" y2="10343.57"/><line class="cls-6" x1="809.98" y1="5119.73" x2="809.98" y2="10343.57"/><line class="cls-6" x1="721.58" y1="5119.73" x2="721.58" y2="10343.57"/><line class="cls-6" x1="633.18" y1="5119.73" x2="633.18" y2="10343.57"/><line class="cls-6" x1="544.78" y1="5119.73" x2="544.78" y2="10343.57"/><line class="cls-6" x1="456.38" y1="5119.73" x2="456.38" y2="10343.57"/><line class="cls-6" x1="367.98" y1="5119.73" x2="367.98" y2="10343.57"/><line class="cls-6" x1="279.58" y1="5119.73" x2="279.58" y2="10343.57"/><line class="cls-6" x1="191.18" y1="5119.73" x2="191.18" y2="10343.57"/><line class="cls-6" x1="102.78" y1="5119.73" x2="102.78" y2="10343.57"/><line class="cls-6" x1="14.38" y1="5119.73" x2="14.38" y2="10343.57"/></g><g><line class="cls-6" x1="50.79" y1="4128.99" x2="4574.77" y2="6740.91"/><line class="cls-6" x1="6.59" y1="4205.55" x2="4530.57" y2="6817.47"/><line class="cls-6" x1="-37.61" y1="4282.1" x2="4486.37" y2="6894.02"/><line class="cls-6" x1="-81.81" y1="4358.66" x2="4442.17" y2="6970.58"/><line class="cls-6" x1="-126.01" y1="4435.22" x2="4397.97" y2="7047.14"/><line class="cls-6" x1="-170.21" y1="4511.77" x2="4353.77" y2="7123.69"/><line class="cls-6" x1="-214.41" y1="4588.33" x2="4309.57" y2="7200.25"/><line class="cls-6" x1="-258.61" y1="4664.89" x2="4265.37" y2="7276.81"/><line class="cls-6" x1="-302.81" y1="4741.44" x2="4221.17" y2="7353.36"/><line class="cls-6" x1="-347.01" y1="4818" x2="4176.97" y2="7429.92"/><line class="cls-6" x1="-391.21" y1="4894.56" x2="4132.77" y2="7506.48"/><line class="cls-6" x1="-435.41" y1="4971.11" x2="4088.57" y2="7583.03"/><line class="cls-6" x1="-479.61" y1="5047.67" x2="4044.37" y2="7659.59"/><line class="cls-6" x1="-523.81" y1="5124.23" x2="4000.17" y2="7736.15"/><line class="cls-6" x1="-568.01" y1="5200.78" x2="3955.97" y2="7812.7"/><line class="cls-6" x1="-612.21" y1="5277.34" x2="3911.77" y2="7889.26"/><line class="cls-6" x1="-656.41" y1="5353.9" x2="3867.57" y2="7965.82"/><line class="cls-6" x1="-700.61" y1="5430.45" x2="3823.37" y2="8042.37"/><line class="cls-6" x1="-744.81" y1="5507.01" x2="3779.17" y2="8118.93"/><line class="cls-6" x1="-789.01" y1="5583.56" x2="3734.97" y2="8195.48"/><line class="cls-6" x1="-833.21" y1="5660.12" x2="3690.77" y2="8272.04"/><line class="cls-6" x1="-877.41" y1="5736.68" x2="3646.57" y2="8348.6"/><line class="cls-6" x1="-921.61" y1="5813.23" x2="3602.37" y2="8425.15"/><line class="cls-6" x1="-965.81" y1="5889.79" x2="3558.17" y2="8501.71"/><line class="cls-6" x1="-1010.01" y1="5966.35" x2="3513.97" y2="8578.27"/><line class="cls-6" x1="-1054.21" y1="6042.9" x2="3469.77" y2="8654.82"/><line class="cls-6" x1="-1098.41" y1="6119.46" x2="3425.57" y2="8731.38"/><line class="cls-6" x1="-1142.61" y1="6196.02" x2="3381.37" y2="8807.94"/><line class="cls-6" x1="-1186.81" y1="6272.57" x2="3337.17" y2="8884.49"/><line class="cls-6" x1="-1231.01" y1="6349.13" x2="3292.97" y2="8961.05"/><line class="cls-6" x1="-1275.21" y1="6425.69" x2="3248.77" y2="9037.61"/><line class="cls-6" x1="-1319.41" y1="6502.24" x2="3204.57" y2="9114.16"/><line class="cls-6" x1="-1363.61" y1="6578.8" x2="3160.37" y2="9190.72"/><line class="cls-6" x1="-1407.81" y1="6655.36" x2="3116.17" y2="9267.28"/><line class="cls-6" x1="-1452.01" y1="6731.91" x2="3071.97" y2="9343.83"/><line class="cls-6" x1="-1496.21" y1="6808.47" x2="3027.77" y2="9420.39"/><line class="cls-6" x1="-1540.41" y1="6885.03" x2="2983.57" y2="9496.95"/><line class="cls-6" x1="-1584.61" y1="6961.58" x2="2939.37" y2="9573.5"/><line class="cls-6" x1="-1628.81" y1="7038.14" x2="2895.17" y2="9650.06"/><line class="cls-6" x1="-1673.01" y1="7114.69" x2="2850.97" y2="9726.61"/><line class="cls-6" x1="-1717.21" y1="7191.25" x2="2806.77" y2="9803.17"/><line class="cls-6" x1="-1761.41" y1="7267.81" x2="2762.57" y2="9879.73"/><line class="cls-6" x1="-1805.61" y1="7344.36" x2="2718.37" y2="9956.28"/><line class="cls-6" x1="-1849.81" y1="7420.92" x2="2674.17" y2="10032.84"/><line class="cls-6" x1="-1894.01" y1="7497.48" x2="2629.97" y2="10109.4"/><line class="cls-6" x1="-1938.21" y1="7574.03" x2="2585.77" y2="10185.95"/><line class="cls-6" x1="-1982.41" y1="7650.59" x2="2541.57" y2="10262.51"/><line class="cls-6" x1="-2026.61" y1="7727.15" x2="2497.37" y2="10339.07"/><line class="cls-6" x1="-2070.81" y1="7803.7" x2="2453.17" y2="10415.62"/><line class="cls-6" x1="-2115.01" y1="7880.26" x2="2408.97" y2="10492.18"/><line class="cls-6" x1="-2159.21" y1="7956.82" x2="2364.77" y2="10568.74"/><line class="cls-6" x1="-2203.41" y1="8033.37" x2="2320.57" y2="10645.29"/><line class="cls-6" x1="-2247.61" y1="8109.93" x2="2276.37" y2="10721.85"/><line class="cls-6" x1="-2291.81" y1="8186.49" x2="2232.17" y2="10798.41"/><line class="cls-6" x1="-2336.01" y1="8263.04" x2="2187.97" y2="10874.96"/><line class="cls-6" x1="-2380.21" y1="8339.6" x2="2143.77" y2="10951.52"/><line class="cls-6" x1="-2424.41" y1="8416.16" x2="2099.57" y2="11028.08"/><line class="cls-6" x1="-2468.61" y1="8492.71" x2="2055.37" y2="11104.63"/><line class="cls-6" x1="-2512.81" y1="8569.27" x2="2011.17" y2="11181.19"/><line class="cls-6" x1="-2557.01" y1="8645.82" x2="1966.97" y2="11257.74"/><line class="cls-6" x1="-2601.21" y1="8722.38" x2="1922.77" y2="11334.3"/></g><g><line class="cls-6" x1="4574.77" y1="8722.38" x2="50.79" y2="11334.3"/><line class="cls-6" x1="4530.57" y1="8645.82" x2="6.59" y2="11257.74"/><line class="cls-6" x1="4486.37" y1="8569.27" x2="-37.61" y2="11181.19"/><line class="cls-6" x1="4442.17" y1="8492.71" x2="-81.81" y2="11104.63"/><line class="cls-6" x1="4397.97" y1="8416.16" x2="-126.01" y2="11028.08"/><line class="cls-6" x1="4353.77" y1="8339.6" x2="-170.21" y2="10951.52"/><line class="cls-6" x1="4309.57" y1="8263.04" x2="-214.41" y2="10874.96"/><line class="cls-6" x1="4265.37" y1="8186.49" x2="-258.61" y2="10798.41"/><line class="cls-6" x1="4221.17" y1="8109.93" x2="-302.81" y2="10721.85"/><line class="cls-6" x1="4176.97" y1="8033.37" x2="-347.01" y2="10645.29"/><line class="cls-6" x1="4132.77" y1="7956.82" x2="-391.21" y2="10568.74"/><line class="cls-6" x1="4088.57" y1="7880.26" x2="-435.41" y2="10492.18"/><line class="cls-6" x1="4044.37" y1="7803.7" x2="-479.61" y2="10415.62"/><line class="cls-6" x1="4000.17" y1="7727.15" x2="-523.81" y2="10339.07"/><line class="cls-6" x1="3955.97" y1="7650.59" x2="-568.01" y2="10262.51"/><line class="cls-6" x1="3911.77" y1="7574.03" x2="-612.21" y2="10185.95"/><line class="cls-6" x1="3867.57" y1="7497.48" x2="-656.41" y2="10109.4"/><line class="cls-6" x1="3823.37" y1="7420.92" x2="-700.61" y2="10032.84"/><line class="cls-6" x1="3779.17" y1="7344.36" x2="-744.81" y2="9956.28"/><line class="cls-6" x1="3734.97" y1="7267.81" x2="-789.01" y2="9879.73"/><line class="cls-6" x1="3690.77" y1="7191.25" x2="-833.21" y2="9803.17"/><line class="cls-6" x1="3646.57" y1="7114.69" x2="-877.41" y2="9726.61"/><line class="cls-6" x1="3602.37" y1="7038.14" x2="-921.61" y2="9650.06"/><line class="cls-6" x1="3558.17" y1="6961.58" x2="-965.81" y2="9573.5"/><line class="cls-6" x1="3513.97" y1="6885.03" x2="-1010.01" y2="9496.95"/><line class="cls-6" x1="3469.77" y1="6808.47" x2="-1054.21" y2="9420.39"/><line class="cls-6" x1="3425.57" y1="6731.91" x2="-1098.41" y2="9343.83"/><line class="cls-6" x1="3381.37" y1="6655.36" x2="-1142.61" y2="9267.28"/><line class="cls-6" x1="3337.17" y1="6578.8" x2="-1186.81" y2="9190.72"/><line class="cls-6" x1="3292.97" y1="6502.24" x2="-1231.01" y2="9114.16"/><line class="cls-6" x1="3248.77" y1="6425.69" x2="-1275.21" y2="9037.61"/><line class="cls-6" x1="3204.57" y1="6349.13" x2="-1319.41" y2="8961.05"/><line class="cls-6" x1="3160.37" y1="6272.57" x2="-1363.61" y2="8884.49"/><line class="cls-6" x1="3116.17" y1="6196.02" x2="-1407.81" y2="8807.94"/><line class="cls-6" x1="3071.97" y1="6119.46" x2="-1452.01" y2="8731.38"/><line class="cls-6" x1="3027.77" y1="6042.9" x2="-1496.21" y2="8654.82"/><line class="cls-6" x1="2983.57" y1="5966.35" x2="-1540.41" y2="8578.27"/><line class="cls-6" x1="2939.37" y1="5889.79" x2="-1584.61" y2="8501.71"/><line class="cls-6" x1="2895.17" y1="5813.23" x2="-1628.81" y2="8425.15"/><line class="cls-6" x1="2850.97" y1="5736.68" x2="-1673.01" y2="8348.6"/><line class="cls-6" x1="2806.77" y1="5660.12" x2="-1717.21" y2="8272.04"/><line class="cls-6" x1="2762.57" y1="5583.56" x2="-1761.41" y2="8195.48"/><line class="cls-6" x1="2718.37" y1="5507.01" x2="-1805.61" y2="8118.93"/><line class="cls-6" x1="2674.17" y1="5430.45" x2="-1849.81" y2="8042.37"/><line class="cls-6" x1="2629.97" y1="5353.9" x2="-1894.01" y2="7965.82"/><line class="cls-6" x1="2585.77" y1="5277.34" x2="-1938.21" y2="7889.26"/><line class="cls-6" x1="2541.57" y1="5200.78" x2="-1982.41" y2="7812.7"/><line class="cls-6" x1="2497.37" y1="5124.23" x2="-2026.61" y2="7736.15"/><line class="cls-6" x1="2453.17" y1="5047.67" x2="-2070.81" y2="7659.59"/><line class="cls-6" x1="2408.97" y1="4971.11" x2="-2115.01" y2="7583.03"/><line class="cls-6" x1="2364.77" y1="4894.56" x2="-2159.21" y2="7506.48"/><line class="cls-6" x1="2320.57" y1="4818" x2="-2203.41" y2="7429.92"/><line class="cls-6" x1="2276.37" y1="4741.44" x2="-2247.61" y2="7353.36"/><line class="cls-6" x1="2232.17" y1="4664.89" x2="-2291.81" y2="7276.81"/><line class="cls-6" x1="2187.97" y1="4588.33" x2="-2336.01" y2="7200.25"/><line class="cls-6" x1="2143.77" y1="4511.77" x2="-2380.21" y2="7123.69"/><line class="cls-6" x1="2099.57" y1="4435.22" x2="-2424.41" y2="7047.14"/><line class="cls-6" x1="2055.37" y1="4358.66" x2="-2468.61" y2="6970.58"/><line class="cls-6" x1="2011.17" y1="4282.1" x2="-2512.81" y2="6894.02"/><line class="cls-6" x1="1966.97" y1="4205.55" x2="-2557.01" y2="6817.47"/><line class="cls-6" x1="1922.77" y1="4128.99" x2="-2601.21" y2="6740.91"/></g></g><g class="cls-3"><g><line class="cls-6" x1="1870.78" y1="8385.98" x2="1870.78" y2="13609.82"/><line class="cls-6" x1="1782.38" y1="8385.98" x2="1782.38" y2="13609.82"/><line class="cls-6" x1="1693.98" y1="8385.98" x2="1693.98" y2="13609.82"/><line class="cls-6" x1="1605.58" y1="8385.98" x2="1605.58" y2="13609.82"/><line class="cls-6" x1="1517.18" y1="8385.98" x2="1517.18" y2="13609.82"/><line class="cls-6" x1="1428.78" y1="8385.98" x2="1428.78" y2="13609.82"/><line class="cls-6" x1="1340.38" y1="8385.98" x2="1340.38" y2="13609.82"/><line class="cls-6" x1="1251.98" y1="8385.98" x2="1251.98" y2="13609.82"/><line class="cls-6" x1="1163.58" y1="8385.98" x2="1163.58" y2="13609.82"/><line class="cls-6" x1="1075.18" y1="8385.98" x2="1075.18" y2="13609.82"/><line class="cls-6" x1="986.78" y1="8385.98" x2="986.78" y2="13609.82"/><line class="cls-6" x1="898.38" y1="8385.98" x2="898.38" y2="13609.82"/><line class="cls-6" x1="809.98" y1="8385.98" x2="809.98" y2="13609.82"/><line class="cls-6" x1="721.58" y1="8385.98" x2="721.58" y2="13609.82"/><line class="cls-6" x1="633.18" y1="8385.98" x2="633.18" y2="13609.82"/><line class="cls-6" x1="544.78" y1="8385.98" x2="544.78" y2="13609.82"/><line class="cls-6" x1="456.38" y1="8385.98" x2="456.38" y2="13609.82"/><line class="cls-6" x1="367.98" y1="8385.98" x2="367.98" y2="13609.82"/><line class="cls-6" x1="279.58" y1="8385.98" x2="279.58" y2="13609.82"/><line class="cls-6" x1="191.18" y1="8385.98" x2="191.18" y2="13609.82"/><line class="cls-6" x1="102.78" y1="8385.98" x2="102.78" y2="13609.82"/><line class="cls-6" x1="14.38" y1="8385.98" x2="14.38" y2="13609.82"/></g><g><line class="cls-6" x1="50.79" y1="7395.25" x2="4574.77" y2="10007.17"/><line class="cls-6" x1="6.59" y1="7471.8" x2="4530.57" y2="10083.72"/><line class="cls-6" x1="-37.61" y1="7548.36" x2="4486.37" y2="10160.28"/><line class="cls-6" x1="-81.81" y1="7624.92" x2="4442.17" y2="10236.84"/><line class="cls-6" x1="-126.01" y1="7701.47" x2="4397.97" y2="10313.39"/><line class="cls-6" x1="-170.21" y1="7778.03" x2="4353.77" y2="10389.95"/><line class="cls-6" x1="-214.41" y1="7854.59" x2="4309.57" y2="10466.51"/><line class="cls-6" x1="-258.61" y1="7931.14" x2="4265.37" y2="10543.06"/><line class="cls-6" x1="-302.81" y1="8007.7" x2="4221.17" y2="10619.62"/><line class="cls-6" x1="-347.01" y1="8084.25" x2="4176.97" y2="10696.17"/><line class="cls-6" x1="-391.21" y1="8160.81" x2="4132.77" y2="10772.73"/><line class="cls-6" x1="-435.41" y1="8237.37" x2="4088.57" y2="10849.29"/><line class="cls-6" x1="-479.61" y1="8313.92" x2="4044.37" y2="10925.84"/><line class="cls-6" x1="-523.81" y1="8390.48" x2="4000.17" y2="11002.4"/><line class="cls-6" x1="-568.01" y1="8467.04" x2="3955.97" y2="11078.96"/><line class="cls-6" x1="-612.21" y1="8543.59" x2="3911.77" y2="11155.51"/><line class="cls-6" x1="-656.41" y1="8620.15" x2="3867.57" y2="11232.07"/><line class="cls-6" x1="-700.61" y1="8696.71" x2="3823.37" y2="11308.63"/><line class="cls-6" x1="-744.81" y1="8773.26" x2="3779.17" y2="11385.18"/><line class="cls-6" x1="-789.01" y1="8849.82" x2="3734.97" y2="11461.74"/><line class="cls-6" x1="-833.21" y1="8926.38" x2="3690.77" y2="11538.3"/><line class="cls-6" x1="-877.41" y1="9002.93" x2="3646.57" y2="11614.85"/><line class="cls-6" x1="-921.61" y1="9079.49" x2="3602.37" y2="11691.41"/><line class="cls-6" x1="-965.81" y1="9156.05" x2="3558.17" y2="11767.97"/><line class="cls-6" x1="-1010.01" y1="9232.6" x2="3513.97" y2="11844.52"/><line class="cls-6" x1="-1054.21" y1="9309.16" x2="3469.77" y2="11921.08"/><line class="cls-6" x1="-1098.41" y1="9385.72" x2="3425.57" y2="11997.64"/><line class="cls-6" x1="-1142.61" y1="9462.27" x2="3381.37" y2="12074.19"/><line class="cls-6" x1="-1186.81" y1="9538.83" x2="3337.17" y2="12150.75"/><line class="cls-6" x1="-1231.01" y1="9615.38" x2="3292.97" y2="12227.3"/><line class="cls-6" x1="-1275.21" y1="9691.94" x2="3248.77" y2="12303.86"/><line class="cls-6" x1="-1319.41" y1="9768.5" x2="3204.57" y2="12380.42"/><line class="cls-6" x1="-1363.61" y1="9845.05" x2="3160.37" y2="12456.97"/><line class="cls-6" x1="-1407.81" y1="9921.61" x2="3116.17" y2="12533.53"/><line class="cls-6" x1="-1452.01" y1="9998.17" x2="3071.97" y2="12610.09"/></g><g><line class="cls-6" x1="3425.57" y1="9998.17" x2="-1098.41" y2="12610.09"/><line class="cls-6" x1="3381.37" y1="9921.61" x2="-1142.61" y2="12533.53"/><line class="cls-6" x1="3337.17" y1="9845.05" x2="-1186.81" y2="12456.97"/><line class="cls-6" x1="3292.97" y1="9768.5" x2="-1231.01" y2="12380.42"/><line class="cls-6" x1="3248.77" y1="9691.94" x2="-1275.21" y2="12303.86"/><line class="cls-6" x1="3204.57" y1="9615.38" x2="-1319.41" y2="12227.3"/><line class="cls-6" x1="3160.37" y1="9538.83" x2="-1363.61" y2="12150.75"/><line class="cls-6" x1="3116.17" y1="9462.27" x2="-1407.81" y2="12074.19"/><line class="cls-6" x1="3071.97" y1="9385.72" x2="-1452.01" y2="11997.64"/><line class="cls-6" x1="3027.77" y1="9309.16" x2="-1496.21" y2="11921.08"/><line class="cls-6" x1="2983.57" y1="9232.6" x2="-1540.41" y2="11844.52"/><line class="cls-6" x1="2939.37" y1="9156.05" x2="-1584.61" y2="11767.97"/><line class="cls-6" x1="2895.17" y1="9079.49" x2="-1628.81" y2="11691.41"/><line class="cls-6" x1="2850.97" y1="9002.93" x2="-1673.01" y2="11614.85"/><line class="cls-6" x1="2806.77" y1="8926.38" x2="-1717.21" y2="11538.3"/><line class="cls-6" x1="2762.57" y1="8849.82" x2="-1761.41" y2="11461.74"/><line class="cls-6" x1="2718.37" y1="8773.26" x2="-1805.61" y2="11385.18"/><line class="cls-6" x1="2674.17" y1="8696.71" x2="-1849.81" y2="11308.63"/><line class="cls-6" x1="2629.97" y1="8620.15" x2="-1894.01" y2="11232.07"/><line class="cls-6" x1="2585.77" y1="8543.59" x2="-1938.21" y2="11155.51"/><line class="cls-6" x1="2541.57" y1="8467.04" x2="-1982.41" y2="11078.96"/><line class="cls-6" x1="2497.37" y1="8390.48" x2="-2026.61" y2="11002.4"/><line class="cls-6" x1="2453.17" y1="8313.92" x2="-2070.81" y2="10925.84"/><line class="cls-6" x1="2408.97" y1="8237.37" x2="-2115.01" y2="10849.29"/><line class="cls-6" x1="2364.77" y1="8160.81" x2="-2159.21" y2="10772.73"/><line class="cls-6" x1="2320.57" y1="8084.25" x2="-2203.41" y2="10696.17"/><line class="cls-6" x1="2276.37" y1="8007.7" x2="-2247.61" y2="10619.62"/><line class="cls-6" x1="2232.17" y1="7931.14" x2="-2291.81" y2="10543.06"/><line class="cls-6" x1="2187.97" y1="7854.59" x2="-2336.01" y2="10466.51"/><line class="cls-6" x1="2143.77" y1="7778.03" x2="-2380.21" y2="10389.95"/><line class="cls-6" x1="2099.57" y1="7701.47" x2="-2424.41" y2="10313.39"/><line class="cls-6" x1="2055.37" y1="7624.92" x2="-2468.61" y2="10236.84"/><line class="cls-6" x1="2011.17" y1="7548.36" x2="-2512.81" y2="10160.28"/><line class="cls-6" x1="1966.97" y1="7471.8" x2="-2557.01" y2="10083.72"/><line class="cls-6" x1="1922.77" y1="7395.25" x2="-2601.21" y2="10007.17"/></g></g></svg>